<svg xmlns="http://www.w3.org/2000/svg" width="24" height="24" viewBox="0 0 24 24" fill="none">
  <path fill-rule="evenodd" clip-rule="evenodd" d="M14.3017 9.29447C14.3936 9.20126 14.5031 9.12724 14.6239 9.07672C14.7447 9.0262 14.8743 9.00018 15.0052 9.00018C15.1361 9.00018 15.2657 9.0262 15.3865 9.07672C15.5073 9.12724 15.6168 9.20126 15.7087 9.29447C15.8953 9.48349 15.9999 9.73839 15.9999 10.004C15.9999 10.2696 15.8953 10.5245 15.7087 10.7135L12.7687 13.6785C12.6674 13.7807 12.5468 13.8618 12.414 13.9171C12.2811 13.9725 12.1386 14.001 11.9947 14.001C11.8508 14.001 11.7083 13.9725 11.5754 13.9171C11.4426 13.8618 11.322 13.7807 11.2207 13.6785L8.2907 10.7235C8.10383 10.5344 7.99903 10.2793 7.99903 10.0135C7.99903 9.74765 8.10383 9.49254 8.2907 9.30347C8.38262 9.21026 8.49215 9.13624 8.61292 9.08572C8.73369 9.0352 8.86329 9.00918 8.9942 9.00918C9.12511 9.00918 9.25472 9.0352 9.37549 9.08572C9.49626 9.13624 9.60579 9.21026 9.6977 9.30347L11.9947 11.6215L14.3017 9.29447Z" fill="#49565E"/>
</svg>