<svg width="122" height="33" viewBox="0 0 122 33" fill="none" xmlns="http://www.w3.org/2000/svg">
<g id="Frame" clip-path="url(#clip0_101_1216)">
<g id="XMLID 65">
<path id="XMLID 69" d="M72.2176 10.9981C70.5543 10.9981 69.2436 11.692 68.5155 12.9708V11.2788H66.4613V26.117H68.5231V20.1443C69.2513 21.4152 70.562 22.117 72.2252 22.117C75.1455 22.117 77.3146 19.6686 77.3146 16.5575C77.3146 13.4464 75.1378 10.9981 72.2176 10.9981ZM71.9033 20.2846C69.9641 20.2846 68.5155 18.8499 68.5155 16.5575C68.5155 14.2651 69.9641 12.8304 71.9033 12.8304C73.9191 12.8304 75.3295 14.4834 75.3295 16.5575C75.3371 18.6316 73.9268 20.2846 71.9033 20.2846ZM78.9012 21.8363H80.9554V6.99805H78.9012V21.8363ZM60.1609 10.9981C58.421 10.9981 57.164 11.9337 56.5201 13.2905C55.8763 11.7934 54.6193 10.9981 52.8947 10.9981C51.4077 10.9981 50.2504 11.8168 49.7062 12.9864V11.271H47.652V21.8285H49.7062V16.23C49.7062 14.3743 50.8635 12.8226 52.4885 12.8226C54.1364 12.8226 54.9565 13.9376 54.9565 16.0663V21.8207H57.0107V16.2222C57.0107 14.3665 58.168 12.8148 59.793 12.8148C61.4409 12.8148 62.261 13.9298 62.261 16.0585V21.8129H64.3075V15.9181C64.3075 12.8304 62.7592 10.9981 60.1609 10.9981ZM43.3597 21.8363H45.4139V11.2788H43.3597V21.8363ZM44.3791 6.79532C43.5973 6.79532 43.0071 7.37232 43.0071 8.15205C43.0071 8.93178 43.5973 9.50877 44.3791 9.50877C45.1839 9.50877 45.7665 8.93178 45.7665 8.15205C45.7665 7.37232 45.1763 6.79532 44.3791 6.79532ZM83.1858 21.8363H85.24V11.2788H83.1858V21.8363ZM38.5846 15.9181L36.883 15.5205C35.1814 15.1228 34.6679 14.8265 34.6679 14.0858C34.6679 13.306 35.7486 12.7524 37.0746 12.7524C38.324 12.7524 39.5427 13.3138 40.0869 14.1637L41.6735 13.2047C41.2979 12.5887 40.6924 12.0507 39.8493 11.6296C39.0291 11.2086 38.1094 10.9903 37.1053 10.9903C34.5759 10.9903 32.698 12.269 32.698 14.1949C32.698 15.731 33.7558 16.6433 35.9479 17.1423L37.6495 17.54C39.3127 17.9376 39.8646 18.2339 39.8646 19.0137C39.8646 19.7934 38.6536 20.347 37.1436 20.347C35.672 20.347 34.3996 19.692 33.7941 18.7329L32.1922 19.692C32.6061 20.347 33.2499 20.924 34.1314 21.384C35.0128 21.8597 36.0092 22.1014 37.1053 22.1014C39.788 22.1014 41.8268 20.8304 41.8268 18.8967C41.8344 17.3372 40.7767 16.4172 38.5846 15.9181ZM84.2052 6.79532C83.4234 6.79532 82.8333 7.37232 82.8333 8.15205C82.8333 8.93178 83.4234 9.50877 84.2052 9.50877C85.0101 9.50877 85.5926 8.93178 85.5926 8.15205C85.5926 7.37232 85.0101 6.79532 84.2052 6.79532ZM118.75 15.9259L117.049 15.5283C115.347 15.1306 114.834 14.8343 114.834 14.0936C114.834 13.3138 115.914 12.7602 117.24 12.7602C118.49 12.7602 119.747 13.3606 120.291 14.2183L121.839 13.2203C121.464 12.6043 120.858 12.0663 120.015 11.6452C119.195 11.2242 118.275 11.0059 117.271 11.0059C114.742 11.0059 112.864 12.2846 112.864 14.2105C112.864 15.7466 113.922 16.6589 116.114 17.1579L117.815 17.5556C119.478 17.9532 120.03 18.2495 120.03 19.0292C120.03 19.809 118.819 20.3626 117.309 20.3626C115.838 20.3626 114.343 19.4035 113.738 18.4445L112.136 19.4035C112.55 20.0585 113.416 20.9396 114.297 21.3996C115.179 21.8753 116.175 22.117 117.271 22.117C119.954 22.117 121.993 20.846 121.993 18.9123C122 17.3372 120.942 16.425 118.75 15.9259ZM95.5951 12.9786C94.8669 11.6998 93.5563 11.0059 91.893 11.0059C88.9727 11.0059 86.8036 13.4542 86.8036 16.5653C86.8036 19.6764 88.9804 22.1248 91.893 22.1248C93.5563 22.1248 94.8669 21.4308 95.5951 20.1521V21.8441H97.6492V19.9493C96.9211 19.0214 96.4995 17.8363 96.5225 16.5341C96.4995 15.232 96.9211 14.0468 97.6492 13.1189V8.33918H95.5951V12.9786ZM92.2073 20.2846C90.1914 20.2846 88.7811 18.6316 88.7811 16.5575C88.7811 14.4834 90.1914 12.8304 92.2073 12.8304C94.1465 12.8304 95.5951 14.2651 95.5951 16.5575C95.5951 18.8499 94.1465 20.2846 92.2073 20.2846ZM109.852 20.269C108.618 20.269 107.989 19.4113 107.989 17.6959V13.1111H111.806V11.2788H107.989V8.39376H105.935V11.2788H103.007C105.398 11.7934 107.115 13.922 107.069 16.5263C107.092 17.6881 106.755 18.7641 106.165 19.6374C106.632 21.2905 107.805 22.117 109.675 22.117C110.618 22.117 111.576 21.8363 112.143 21.4386L111.637 19.7856C111.109 20.1053 110.518 20.269 109.852 20.269Z" fill="#112025"/>
<path id="XMLID 66" d="M101.796 13.1579C103.681 13.1189 105.145 14.6316 105.107 16.5263C105.138 18.4211 103.681 19.9337 101.796 19.8948C99.9102 19.9337 98.4462 18.4211 98.4845 16.5263C98.4539 14.6316 99.9179 13.1189 101.796 13.1579Z" fill="#EB3B5A"/>
</g>
<g id="XMLID 1">
<g id="XMLID 3">
<g id="XMLID 20">
<g id="XMLID 21">
<path id="XMLID 22" d="M29.6627 22.1249C29.6551 22.0625 29.6398 22.0002 29.6244 21.9378C29.6244 21.93 29.6244 21.9222 29.6168 21.9144C29.6014 21.852 29.5861 21.7974 29.5631 21.7351V21.7273C29.5478 21.6727 29.5248 21.6181 29.5018 21.5635C29.5018 21.5557 29.4941 21.5479 29.4941 21.5401C29.4711 21.4855 29.4481 21.431 29.4175 21.3842C29.4098 21.3764 29.4098 21.3686 29.4021 21.353C29.3485 21.2438 29.2795 21.1425 29.2105 21.0411C29.2105 21.0333 29.2029 21.0333 29.2029 21.0255C29.1645 20.9787 29.1262 20.9241 29.0879 20.8774C28.789 20.5343 28.4057 20.277 27.9688 20.1366C27.8309 20.0976 27.6929 20.0586 27.5473 20.043C27.164 19.9963 26.7885 20.0353 26.4435 20.1522C26.3209 20.1912 26.2059 20.2458 26.091 20.3082C26.0526 20.3238 26.022 20.3471 25.9837 20.3627C25.976 20.3627 25.976 20.3705 25.9683 20.3705C25.9377 20.3861 25.907 20.4095 25.8764 20.4251L25.8534 20.4407C25.8227 20.4563 25.7997 20.4797 25.7767 20.4953C25.769 20.5031 25.7614 20.5109 25.7537 20.5109C25.6924 20.5577 25.6234 20.6122 25.5698 20.6668L15.6056 14.0469L15.6132 5.34519C16.1574 5.16585 16.6097 4.79938 16.9162 4.32375L24.3664 9.27502C24.5197 8.76819 24.8033 8.32375 25.1712 7.97287L17.2995 2.7487C17.2842 2.59275 17.2612 2.43681 17.2152 2.28866C17.2075 2.27307 17.2075 2.25747 17.1998 2.24188C17.1922 2.22628 17.1922 2.20289 17.1845 2.1873C17.1768 2.1717 17.1692 2.14831 17.1692 2.13272C17.1615 2.11712 17.1539 2.10153 17.1539 2.07814C17.1462 2.06254 17.1385 2.03915 17.1309 2.02355C17.1232 2.00796 17.1155 1.99237 17.1079 1.97677C17.1002 1.96118 17.0925 1.93778 17.0849 1.92219C17.0772 1.90659 17.0695 1.891 17.0619 1.87541C17.0542 1.85981 17.0465 1.84422 17.0389 1.82083C17.0312 1.80523 17.0236 1.78964 17.0159 1.77404C17.0082 1.75845 17.0006 1.74285 16.9852 1.71946C16.9776 1.70387 16.9699 1.68827 16.9622 1.67268C16.9546 1.65708 16.9392 1.64149 16.9316 1.62589C16.9239 1.6103 16.9162 1.5947 16.9009 1.58691C16.8933 1.57131 16.8779 1.55572 16.8703 1.54012C16.8626 1.52453 16.8549 1.51673 16.8396 1.50114C16.8319 1.48554 16.8166 1.46995 16.8089 1.45435C16.8013 1.43876 16.7859 1.43096 16.7783 1.41537C16.7553 1.38418 16.7323 1.36079 16.7093 1.3296C16.7016 1.314 16.6863 1.30621 16.6786 1.29061C16.6633 1.27502 16.6556 1.25942 16.6403 1.25162C16.625 1.23603 16.6173 1.22823 16.602 1.21264C16.5867 1.19704 16.579 1.18925 16.5637 1.17365C16.5483 1.15806 16.5407 1.15026 16.5253 1.13467C16.51 1.11907 16.5024 1.11127 16.487 1.09568C16.4717 1.08008 16.464 1.07229 16.4487 1.05669C16.4334 1.0411 16.418 1.0333 16.4104 1.0255C16.395 1.01771 16.3797 1.00211 16.3721 0.994314C16.3567 0.986517 16.3414 0.970923 16.3261 0.963125C16.3107 0.955328 16.2954 0.939733 16.2801 0.931936C16.2647 0.924139 16.2494 0.908544 16.2341 0.900747C16.2188 0.89295 16.2034 0.877355 16.1881 0.869558C16.1728 0.861761 16.1574 0.853963 16.1421 0.838369C16.1268 0.830572 16.1114 0.814977 16.0885 0.80718C16.0731 0.799383 16.0578 0.791585 16.0501 0.783788C16.0271 0.768193 16.0118 0.760396 15.9888 0.752599C15.9811 0.744802 15.9658 0.737004 15.9582 0.737004C15.9275 0.72141 15.8968 0.705815 15.8585 0.690221C15.8508 0.682423 15.8355 0.682423 15.8279 0.674626C15.8049 0.666829 15.7819 0.651234 15.7589 0.643437C15.7435 0.63564 15.7282 0.63564 15.7205 0.627843C15.6976 0.620045 15.6822 0.612248 15.6592 0.604451C15.6439 0.596653 15.6286 0.596653 15.6132 0.588856C15.5902 0.581059 15.5749 0.573262 15.5519 0.573262C15.5366 0.565464 15.5213 0.565464 15.5059 0.557667C15.4829 0.54987 15.4676 0.54987 15.4446 0.542073C15.4293 0.534275 15.414 0.534275 15.3986 0.534275C15.3756 0.526478 15.3603 0.526478 15.3373 0.518681C15.322 0.518681 15.3066 0.510883 15.2913 0.510883C15.2683 0.503086 15.2453 0.503086 15.23 0.503086C15.2147 0.503086 15.1993 0.495289 15.184 0.495289C15.161 0.495289 15.138 0.487492 15.115 0.487492C15.0997 0.487492 15.0844 0.487492 15.069 0.479694C15.046 0.479694 15.0154 0.471897 14.9924 0.471897C14.9771 0.471897 14.9694 0.471897 14.9541 0.471897C14.9157 0.471897 14.8774 0.471897 14.8391 0.471897C14.8008 0.471897 14.7548 0.471897 14.7165 0.471897C14.7011 0.471897 14.6858 0.471897 14.6781 0.471897C14.6475 0.471897 14.6245 0.479694 14.5938 0.479694C14.5785 0.479694 14.5632 0.487492 14.5478 0.487492C14.5248 0.487492 14.5018 0.495289 14.4789 0.495289C14.4635 0.495289 14.4405 0.503086 14.4252 0.503086C14.4022 0.510883 14.3792 0.510883 14.3562 0.518681C14.3409 0.518681 14.3179 0.526478 14.3026 0.534275C14.2796 0.542073 14.2642 0.542073 14.2412 0.54987C14.2259 0.557667 14.2029 0.557667 14.1876 0.565464C14.1646 0.573262 14.1493 0.573262 14.1263 0.581059C14.1109 0.588856 14.088 0.596653 14.0726 0.596653C14.0573 0.604451 14.0343 0.612248 14.019 0.620045C14.0036 0.627843 13.9806 0.63564 13.9653 0.643437C13.95 0.651234 13.927 0.659032 13.9117 0.666829C13.8963 0.674626 13.8733 0.682423 13.858 0.690221C13.8427 0.698018 13.8273 0.705815 13.8044 0.713613C13.789 0.72141 13.766 0.729207 13.7507 0.744802C13.7354 0.752599 13.72 0.760396 13.7047 0.768193C13.6817 0.775991 13.6664 0.791585 13.6511 0.799383C13.6357 0.80718 13.6204 0.814977 13.6051 0.822774C13.5821 0.830572 13.5667 0.846166 13.5438 0.861761C13.5284 0.869558 13.5208 0.877355 13.5054 0.885153C13.4824 0.900747 13.4671 0.908544 13.4441 0.924139C13.4364 0.931936 13.4211 0.939733 13.4135 0.947531C13.3905 0.963125 13.3751 0.97872 13.3521 0.994314C13.3445 1.00211 13.3291 1.00991 13.3215 1.01771C13.2985 1.0333 13.2832 1.0489 13.2602 1.07229C13.2525 1.08008 13.2448 1.08788 13.2372 1.09568C13.2142 1.11127 13.1912 1.13467 13.1758 1.15806C13.1682 1.16585 13.1682 1.16585 13.1605 1.17365C13.1375 1.19704 13.1145 1.22044 13.0915 1.24383C12.693 1.64929 12.44 2.19509 12.394 2.80328C12.3864 2.87346 12.3864 2.93583 12.3864 3.00601C12.3864 3.52843 12.5473 4.01186 12.8156 4.41732C12.8233 4.43291 12.8309 4.44851 12.8463 4.4563C12.8693 4.48749 12.8922 4.52648 12.9229 4.55767C12.9306 4.56546 12.9382 4.57326 12.9382 4.58106C12.9612 4.61225 12.9842 4.63564 13.0072 4.65903C13.0149 4.66683 13.0225 4.68242 13.0379 4.69022C13.0609 4.71361 13.0839 4.7448 13.1069 4.76819C13.1145 4.77599 13.1222 4.78379 13.1222 4.78379C13.1528 4.81498 13.1835 4.84617 13.2218 4.87736C13.2295 4.88515 13.2295 4.88515 13.2372 4.89295C13.2678 4.91634 13.2985 4.94753 13.3291 4.97092C13.3368 4.97872 13.3445 4.97872 13.3521 4.98652C13.3905 5.01771 13.4211 5.0411 13.4594 5.07229C13.6587 5.21264 13.8887 5.3296 14.1263 5.40757L14.1186 14.1015L12.3404 15.2087L13.7277 16.1288L14.8391 15.3959L24.8033 22.0158C24.7726 22.1795 24.7496 22.3588 24.7496 22.5304C24.7496 22.7955 24.788 23.0528 24.8646 23.2945L17.3455 28.2692C17.6291 28.7058 17.8054 29.2282 17.8284 29.7896L25.7537 24.5577C26.045 24.776 26.3822 24.9319 26.7501 25.0021C26.7961 25.0099 26.8421 25.0177 26.8881 25.0255C26.9188 25.0333 26.9418 25.0333 26.9724 25.0333C26.9954 25.0333 27.0261 25.0411 27.0491 25.0411C27.1027 25.0489 27.1487 25.0489 27.2024 25.0489C27.2254 25.0489 27.2483 25.0489 27.279 25.0489H27.3173C27.348 25.0489 27.371 25.0489 27.4016 25.0411C27.417 25.0411 27.4323 25.0411 27.44 25.0411C27.4706 25.0411 27.4936 25.0333 27.5243 25.0333L27.5626 25.0255C27.5933 25.0177 27.6239 25.0177 27.6469 25.0099C27.6546 25.0099 27.6699 25.0099 27.6776 25.0021C27.7082 24.9943 27.7389 24.9865 27.7695 24.9865C27.7772 24.9865 27.7849 24.9865 27.7925 24.9787C27.8232 24.9709 27.8615 24.9631 27.8922 24.9553H27.8999C27.9382 24.9475 27.9688 24.9319 28.0072 24.9241C28.2754 24.8384 28.5207 24.698 28.7353 24.5265C28.766 24.5031 28.7966 24.4797 28.8196 24.4563C28.8273 24.4563 28.8273 24.4485 28.8273 24.4485C28.8503 24.4251 28.8809 24.4017 28.9039 24.3783C28.9116 24.3705 28.9193 24.3627 28.9193 24.3627C28.9423 24.3393 28.9653 24.3237 28.9806 24.3004C28.9882 24.2926 28.9959 24.2848 29.0036 24.277C29.0189 24.2536 29.0419 24.238 29.0572 24.2146C29.0649 24.2068 29.0802 24.1912 29.0879 24.1834C29.1032 24.1678 29.1185 24.1444 29.1339 24.1288C29.1415 24.1132 29.1569 24.1054 29.1645 24.0898C29.1799 24.0742 29.1952 24.0508 29.2029 24.0353C29.2105 24.0197 29.2259 24.0041 29.2335 23.9885C29.2488 23.9729 29.2565 23.9495 29.2718 23.9339C29.2795 23.9183 29.2948 23.9027 29.3025 23.8871C29.3102 23.8715 29.3255 23.8481 29.3332 23.8325C29.3408 23.8169 29.3485 23.8013 29.3638 23.7857C29.3715 23.7623 29.3868 23.7468 29.3945 23.7234C29.4021 23.7078 29.4098 23.6922 29.4175 23.6766C29.4251 23.6532 29.4405 23.6298 29.4481 23.6064C29.4558 23.5908 29.4635 23.583 29.4635 23.5674C29.4711 23.544 29.4865 23.5206 29.4941 23.4894C29.5018 23.4738 29.5018 23.466 29.5095 23.4505C29.5171 23.4193 29.5324 23.3959 29.5401 23.3647C29.5401 23.3569 29.5478 23.3491 29.5478 23.3335C29.5554 23.3023 29.5708 23.2711 29.5784 23.2399C29.5784 23.2321 29.5861 23.2243 29.5861 23.2165C29.5938 23.1853 29.6014 23.1542 29.6091 23.1152C29.6091 23.1074 29.6091 23.0996 29.6168 23.0918C29.6244 23.0606 29.6321 23.0216 29.6398 22.9904C29.6398 22.9826 29.6398 22.9748 29.6474 22.967C29.6551 22.9358 29.6551 22.9046 29.6627 22.8735C29.6627 22.8579 29.6627 22.8501 29.6704 22.8345C29.6704 22.8111 29.6781 22.7799 29.6781 22.7565C29.6781 22.7409 29.6781 22.7175 29.6857 22.7019C29.6857 22.6785 29.6857 22.6629 29.6857 22.6395C29.6857 22.6161 29.6857 22.585 29.6857 22.5616V22.5304C29.6934 22.39 29.6857 22.2575 29.6627 22.1249ZM14.8391 3.94168C14.3102 3.94168 13.881 3.50504 13.881 2.96702C13.881 2.42901 14.3102 1.99237 14.8391 1.99237C15.368 1.99237 15.7972 2.42901 15.7972 2.96702C15.7895 3.50504 15.368 3.94168 14.8391 3.94168ZM27.2254 23.5128C26.6965 23.5128 26.2749 23.0762 26.2749 22.5382C26.2749 22.0002 26.7042 21.5713 27.2254 21.5713C27.7542 21.5713 28.1834 22.008 28.1834 22.5382C28.1758 23.0762 27.7542 23.5128 27.2254 23.5128Z" fill="#EB3B5A"/>
</g>
</g>
<g id="XMLID 15">
<g id="XMLID 16">
<path id="XMLID 17" d="M29.5862 9.45425C29.2872 8.4718 28.4058 7.74665 27.3557 7.69207C27.3097 7.69207 27.2714 7.69207 27.2254 7.69207C27.1871 7.69207 27.1411 7.69207 27.1028 7.69207C27.0874 7.69207 27.0721 7.69207 27.0644 7.69207C27.0415 7.69207 27.0108 7.69207 26.9878 7.69987C26.9725 7.69987 26.9571 7.69987 26.9418 7.70766C26.9188 7.70766 26.8958 7.71546 26.8728 7.71546C26.8575 7.71546 26.8345 7.72326 26.8192 7.72326C26.7962 7.72326 26.7808 7.73106 26.7579 7.73106C26.7425 7.73106 26.7195 7.73885 26.7042 7.74665C26.6889 7.75445 26.6659 7.75445 26.6505 7.76224C26.6276 7.77004 26.6122 7.77004 26.5892 7.77784C26.5739 7.78564 26.5586 7.78564 26.5356 7.79343C26.5126 7.80123 26.4973 7.80903 26.4743 7.80903C26.4589 7.81683 26.4436 7.81683 26.4359 7.82462C26.4129 7.83242 26.3899 7.84022 26.367 7.84802C26.3593 7.84802 26.3516 7.85581 26.344 7.85581C26.2213 7.9026 26.0987 7.96497 25.9837 8.03515C25.976 8.03515 25.976 8.04295 25.976 8.04295C25.9531 8.05854 25.9224 8.07414 25.8994 8.08973C25.8917 8.08973 25.8917 8.09753 25.8841 8.09753C25.8611 8.11312 25.8304 8.12872 25.8074 8.15211C25.7998 8.15211 25.7998 8.15991 25.7921 8.15991C25.7691 8.1755 25.7384 8.19889 25.7154 8.21449L25.7078 8.22228C25.6848 8.24568 25.6541 8.26127 25.6311 8.28466C25.2402 8.61995 24.9566 9.07219 24.834 9.5946C24.8263 9.64139 24.811 9.68817 24.8033 9.73495C24.8033 9.74275 24.8033 9.75055 24.7957 9.75835C24.788 9.79733 24.7803 9.83632 24.7803 9.87531C24.7803 9.8909 24.7803 9.8987 24.7727 9.91429C24.765 9.95328 24.765 9.98447 24.765 10.0235C24.765 10.039 24.765 10.0468 24.765 10.0624C24.765 10.1092 24.7573 10.156 24.7573 10.2106C24.7573 10.2652 24.7573 10.312 24.765 10.3587C24.765 10.3743 24.765 10.3977 24.765 10.4133C24.7803 10.5849 24.811 10.7486 24.8493 10.9045L18.3113 15.2242L19.6986 16.1443L25.6925 12.1833C25.9147 12.3626 26.1677 12.503 26.4436 12.5966L26.4359 19.5985C26.8038 19.4971 27.2024 19.4659 27.601 19.5127C27.7236 19.5283 27.8386 19.5517 27.9459 19.5829L27.9536 12.6044C28.2678 12.503 28.5591 12.3392 28.8043 12.1287L28.812 12.1209C28.8503 12.0897 28.881 12.0585 28.9193 12.0196C28.9346 12.004 28.95 11.9884 28.9653 11.9728C28.996 11.9416 29.019 11.9182 29.042 11.887C29.0573 11.8714 29.0649 11.8636 29.0803 11.848C29.1109 11.809 29.1493 11.77 29.1799 11.7233C29.1953 11.7077 29.2029 11.6921 29.2182 11.6765C29.2412 11.6453 29.2642 11.6063 29.2872 11.5751C29.2949 11.5595 29.3102 11.5439 29.3179 11.5283C29.3485 11.4815 29.3715 11.4348 29.4022 11.388C29.4099 11.3724 29.4175 11.3568 29.4252 11.3412C29.4482 11.3022 29.4635 11.2632 29.4788 11.2242C29.4865 11.2086 29.4942 11.193 29.5018 11.1774C29.5248 11.1229 29.5402 11.0761 29.5632 11.0215C29.5708 11.0059 29.5708 10.9981 29.5785 10.9825C29.5938 10.9357 29.6091 10.889 29.6168 10.8422C29.6245 10.8266 29.6245 10.811 29.6321 10.7954C29.6475 10.7408 29.6551 10.6784 29.6705 10.6238C29.6705 10.616 29.6705 10.6082 29.6705 10.6005C29.6781 10.5459 29.6858 10.4913 29.6935 10.4367C29.6935 10.4211 29.6935 10.4055 29.7011 10.3899C29.7088 10.3275 29.7088 10.2652 29.7088 10.2028C29.6935 9.94548 29.6551 9.68817 29.5862 9.45425ZM27.2254 11.1697C26.6965 11.1697 26.275 10.733 26.275 10.195C26.275 9.65698 26.7042 9.22034 27.2254 9.22034C27.7543 9.22034 28.1835 9.65698 28.1835 10.195C28.1758 10.7408 27.7543 11.1697 27.2254 11.1697Z" fill="#EB3B5A"/>
</g>
</g>
<g id="XMLID 9">
<g id="XMLID 10">
<path id="XMLID 11" d="M17.3377 17.7039L15.9504 16.7838L14.839 17.5168L4.85179 10.8813C4.91311 10.663 4.94377 10.4368 4.94377 10.2029C4.94377 9.98459 4.91311 9.77406 4.86712 9.57133L12.3326 4.63566C12.049 4.19901 11.8727 3.6766 11.8497 3.11519L4.05466 8.26919C3.84771 8.08985 3.6101 7.9495 3.3495 7.84814C3.32651 7.84034 3.29585 7.82475 3.27285 7.81695C3.26519 7.81695 3.25752 7.80915 3.24986 7.80915C3.2192 7.80135 3.19621 7.79356 3.16555 7.78576C3.15788 7.78576 3.15022 7.78576 3.14255 7.78576C3.11189 7.77796 3.0889 7.77016 3.05824 7.76237C3.05058 7.76237 3.04291 7.75457 3.03525 7.75457C3.00459 7.74677 2.98159 7.73898 2.95093 7.73898C2.94327 7.73898 2.9356 7.73118 2.92027 7.73118C2.89728 7.72338 2.86662 7.72338 2.83596 7.71558C2.8283 7.71558 2.81297 7.71558 2.8053 7.70779C2.78231 7.69999 2.75165 7.69999 2.72866 7.69999C2.72099 7.69999 2.70566 7.69999 2.698 7.69999C2.66734 7.69999 2.64434 7.69219 2.61368 7.69219C2.60602 7.69219 2.59069 7.69219 2.58302 7.69219C2.5447 7.69219 2.50638 7.69219 2.46805 7.69219C1.10373 7.68439 0 8.815 0 10.2029C0 10.2653 0 10.3277 0.00766476 10.39C0.00766476 10.4056 0.00766476 10.4134 0.00766476 10.429C0.0153295 10.4914 0.0229943 10.546 0.030659 10.6084C0.030659 10.6162 0.030659 10.6318 0.0383238 10.6396C0.0459886 10.6941 0.0613181 10.7487 0.0689829 10.8033C0.0689829 10.8111 0.0689829 10.8189 0.0766476 10.8267C0.0919771 10.8813 0.107307 10.9437 0.122636 10.9982C0.122636 11.006 0.130301 11.0216 0.130301 11.0294C0.14563 11.084 0.168625 11.1386 0.191619 11.1932C0.191619 11.201 0.191619 11.201 0.199284 11.2088C0.222278 11.2633 0.245272 11.3101 0.268267 11.3647C0.275931 11.3725 0.275931 11.3803 0.283596 11.3881C0.30659 11.4427 0.33725 11.4895 0.367909 11.5362C0.375573 11.544 0.375573 11.5518 0.383238 11.5596C0.413897 11.6064 0.444556 11.661 0.48288 11.7078C0.521204 11.7546 0.551863 11.8014 0.590187 11.8481C0.597851 11.8559 0.605516 11.8637 0.605516 11.8715C0.64384 11.9183 0.682164 11.9573 0.728152 12.0041L0.735817 12.0119C0.774141 12.0509 0.82013 12.0899 0.866118 12.1288L0.873783 12.1366C0.919771 12.1756 0.96576 12.2146 1.01175 12.2458C1.01941 12.2536 1.02708 12.2536 1.02708 12.2614C1.12672 12.3316 1.22636 12.3939 1.33367 12.4485C1.34133 12.4485 1.349 12.4563 1.349 12.4563C1.40265 12.4797 1.4563 12.5109 1.50996 12.5343C1.51762 12.5343 1.51762 12.5343 1.52529 12.5421C1.57894 12.5655 1.64026 12.5889 1.70158 12.6045C1.93918 12.6824 2.19212 12.7214 2.45272 12.7214C2.73632 12.7214 3.00459 12.6746 3.25752 12.5811C3.28052 12.5733 3.29585 12.5655 3.31884 12.5577C3.35717 12.5421 3.39549 12.5265 3.43381 12.5109C3.44914 12.5031 3.47214 12.4953 3.48747 12.4875C3.51046 12.4719 3.54112 12.4641 3.56411 12.4485C3.57944 12.4407 3.60244 12.4329 3.61777 12.4173C3.65609 12.3939 3.69442 12.3784 3.72507 12.355C3.81705 12.3004 3.90903 12.238 3.99334 12.1678L14.0802 18.8579L14.0725 27.5596C13.5283 27.739 13.0761 28.1055 12.7695 28.5811L5.28869 23.6064C5.10473 24.0977 4.80581 24.5343 4.4149 24.8696L12.3863 30.1639C12.4016 30.3199 12.4246 30.4758 12.4706 30.624C12.4782 30.6396 12.4782 30.6552 12.4859 30.6708C12.4936 30.6863 12.4936 30.7097 12.5012 30.7253C12.5089 30.7409 12.5166 30.7643 12.5166 30.7799C12.5242 30.7955 12.5319 30.8111 12.5319 30.8345C12.5395 30.8501 12.5472 30.8735 12.5549 30.8891C12.5625 30.9047 12.5702 30.9203 12.5779 30.9359C12.5855 30.9515 12.5932 30.9748 12.6009 30.9904C12.6085 31.006 12.6162 31.0216 12.6239 31.0372C12.6315 31.0528 12.6392 31.0762 12.6469 31.0918C12.6545 31.1074 12.6622 31.123 12.6699 31.1386C12.6775 31.1542 12.6852 31.1698 12.7005 31.1932C12.7082 31.2088 12.7158 31.2244 12.7235 31.24C12.7312 31.2555 12.7465 31.2711 12.7542 31.2945C12.7618 31.3101 12.7695 31.3257 12.7772 31.3335C12.7848 31.3491 12.8002 31.3647 12.8078 31.3803C12.8155 31.3959 12.8231 31.4037 12.8385 31.4193C12.8538 31.4349 12.8615 31.4505 12.8768 31.4661C12.8845 31.4739 12.8921 31.4895 12.8998 31.4973C12.9228 31.5285 12.9534 31.5674 12.9764 31.5986C12.9841 31.6064 12.9918 31.622 13.0071 31.6298C13.0224 31.6454 13.0301 31.661 13.0454 31.6688C13.0531 31.6844 13.0684 31.6922 13.0761 31.7078C13.0914 31.7234 13.0991 31.7312 13.1144 31.7468C13.1297 31.7624 13.1374 31.7702 13.1527 31.7858C13.1681 31.8014 13.1834 31.8092 13.1911 31.8247C13.2064 31.8403 13.214 31.8481 13.2294 31.8559C13.2447 31.8715 13.26 31.8793 13.2754 31.8949C13.2907 31.9027 13.306 31.9183 13.3137 31.9261C13.329 31.9339 13.3444 31.9495 13.3597 31.9573C13.375 31.9651 13.3903 31.9807 13.4057 31.9885C13.421 31.9963 13.4363 32.0119 13.4517 32.0197C13.467 32.0275 13.4823 32.0431 13.4976 32.0509C13.513 32.0587 13.5283 32.0665 13.5436 32.0821C13.559 32.0899 13.5743 32.1055 13.5896 32.1132C13.605 32.121 13.6203 32.1288 13.6356 32.1366C13.6509 32.1444 13.6739 32.16 13.6969 32.1678C13.7123 32.1756 13.7199 32.1834 13.7353 32.1912C13.7659 32.2068 13.7966 32.2224 13.8272 32.238C13.8426 32.2458 13.8502 32.2458 13.8656 32.2536C13.8885 32.2614 13.9115 32.2692 13.9269 32.2848C13.9422 32.2926 13.9575 32.2926 13.9729 32.3004C13.9959 32.3082 14.0112 32.316 14.0342 32.3238C14.0495 32.3316 14.0648 32.3316 14.0802 32.3394C14.1032 32.3472 14.1185 32.355 14.1415 32.355C14.1568 32.3628 14.1721 32.3628 14.1875 32.3706C14.2105 32.3784 14.2258 32.3784 14.2488 32.3862C14.2641 32.3939 14.2795 32.394 14.2948 32.4017C14.3178 32.4095 14.3331 32.4095 14.3561 32.4173C14.3714 32.4173 14.3868 32.4251 14.4021 32.4251C14.4251 32.4329 14.4481 32.4329 14.4634 32.4329C14.4787 32.4329 14.4941 32.4407 14.5094 32.4407C14.5324 32.4407 14.5554 32.4485 14.5784 32.4485C14.5937 32.4485 14.609 32.4485 14.6244 32.4563C14.6474 32.4563 14.678 32.4641 14.701 32.4641C14.7163 32.4641 14.724 32.4641 14.7393 32.4641C14.7777 32.4641 14.816 32.4641 14.8543 32.4641C14.8926 32.4641 14.9386 32.4641 14.9769 32.4641C14.9923 32.4641 15.0076 32.4641 15.0153 32.4641C15.0459 32.4641 15.0689 32.4563 15.0996 32.4563C15.1149 32.4563 15.1302 32.4485 15.1532 32.4485C15.1762 32.4485 15.1992 32.4407 15.2222 32.4407C15.2375 32.4407 15.2605 32.4329 15.2759 32.4329C15.2989 32.4329 15.3219 32.4251 15.3449 32.4251C15.3602 32.4173 15.3832 32.4173 15.3985 32.4095C15.4215 32.4017 15.4368 32.4017 15.4598 32.394C15.4752 32.3862 15.4981 32.3862 15.5135 32.3784C15.5365 32.3706 15.5518 32.3706 15.5748 32.3628C15.5901 32.355 15.6131 32.3472 15.6284 32.3472C15.6438 32.3394 15.6668 32.3316 15.6821 32.3316C15.6974 32.3238 15.7204 32.316 15.7358 32.3082C15.7511 32.3004 15.7741 32.2926 15.7894 32.2848C15.8124 32.277 15.8277 32.2692 15.8507 32.2614C15.8661 32.2536 15.8814 32.2458 15.8967 32.238C15.9197 32.2302 15.935 32.2224 15.958 32.2068C15.9734 32.199 15.9887 32.1912 16.004 32.1834C16.027 32.1756 16.0423 32.16 16.0653 32.1522C16.0807 32.1444 16.096 32.1366 16.1037 32.1288C16.1267 32.1132 16.142 32.1055 16.165 32.0899C16.1803 32.0821 16.188 32.0743 16.2033 32.0665C16.2263 32.0509 16.2416 32.0431 16.2646 32.0275C16.2723 32.0197 16.2876 32.0119 16.2953 32.0041C16.3183 31.9885 16.3336 31.9729 16.3566 31.9573C16.3643 31.9495 16.3719 31.9417 16.3873 31.9339C16.4103 31.9183 16.4333 31.9027 16.4486 31.8793C16.4562 31.8715 16.4639 31.8637 16.4716 31.8637C16.4946 31.8481 16.5176 31.8247 16.5406 31.8014C16.5482 31.8014 16.5482 31.7936 16.5559 31.7936C16.9391 31.4271 17.2074 30.9437 17.2994 30.3978C17.307 30.3589 17.3147 30.3199 17.3147 30.2809C17.3224 30.2419 17.3224 30.2029 17.33 30.1639C17.3377 30.0938 17.3377 30.0314 17.3377 29.9612C17.3377 29.4388 17.1844 28.9554 16.9161 28.5577C16.9085 28.5421 16.8931 28.5265 16.8855 28.5109C16.8625 28.4797 16.8395 28.4407 16.8088 28.4095C16.8012 28.3939 16.7858 28.3784 16.7782 28.3706C16.7552 28.3472 16.7398 28.3238 16.7168 28.3004C16.7092 28.2848 16.6939 28.277 16.6862 28.2614C16.6555 28.2302 16.6249 28.199 16.5942 28.1678C16.5865 28.16 16.5712 28.1444 16.5636 28.1366C16.5406 28.1132 16.5099 28.0899 16.4869 28.0665C16.4792 28.0587 16.4716 28.0509 16.4562 28.0431C16.4256 28.0119 16.3873 27.9885 16.3489 27.9573C16.3413 27.9495 16.3259 27.9417 16.3183 27.9339C16.2876 27.9105 16.2493 27.8871 16.2186 27.8637C16.211 27.8559 16.211 27.8559 16.2033 27.8481C16.165 27.8247 16.1267 27.8014 16.0807 27.778C15.935 27.6922 15.7817 27.6298 15.6208 27.5752L15.6284 18.8813L17.3377 17.7039ZM2.46805 11.1698C1.93918 11.1698 1.50996 10.7331 1.50996 10.1951C1.50996 9.6571 1.93918 9.22046 2.46805 9.22046C2.99692 9.22046 3.42615 9.6571 3.42615 10.1951C3.42615 10.7409 2.99692 11.1698 2.46805 11.1698ZM15.7894 29.9456C15.7894 30.4836 15.3602 30.9203 14.8313 30.9203C14.3024 30.9203 13.8732 30.4836 13.8732 29.9456C13.8732 29.4076 14.3024 28.9709 14.8313 28.9709C15.3678 28.9787 15.7894 29.4076 15.7894 29.9456Z" fill="#EB3B5A"/>
</g>
</g>
<g id="XMLID 4">
<g id="XMLID 5">
<path id="XMLID 6" d="M9.97965 16.7759L4.10844 20.6589C3.85551 20.4328 3.55658 20.2613 3.23466 20.1521L3.24233 13.158C2.99705 13.2281 2.73645 13.2593 2.47585 13.2593C2.21525 13.2593 1.96997 13.2281 1.7247 13.1658L1.71704 20.1521C1.34913 20.2691 1.01188 20.4796 0.743613 20.7525C0.735948 20.7603 0.720618 20.7759 0.712954 20.7837C0.682295 20.8149 0.651636 20.8461 0.628641 20.8773C0.613312 20.8929 0.605647 20.9085 0.590317 20.924C0.559658 20.963 0.521335 21.0098 0.490676 21.0488C0.483011 21.0566 0.475346 21.0722 0.467681 21.08C0.444687 21.119 0.414028 21.1502 0.391034 21.1892C0.383369 21.2048 0.368039 21.2203 0.360375 21.2359C0.329715 21.2827 0.306721 21.3295 0.283727 21.3763C0.276062 21.3841 0.276062 21.3919 0.268397 21.3997C0.245403 21.4465 0.230074 21.4855 0.207079 21.5322C0.199415 21.5478 0.19175 21.5634 0.184085 21.579C0.161091 21.6336 0.145761 21.6804 0.122767 21.735C0.122767 21.7428 0.122767 21.7506 0.115102 21.7506C0.0997726 21.7973 0.0844431 21.8519 0.0691136 21.9065C0.0614488 21.9221 0.0614488 21.9377 0.0537841 21.9533C0.0384545 22.0079 0.0307898 22.0702 0.0154603 22.1248V22.1326C0.0077955 22.1872 0.000130735 22.2496 -0.00753403 22.3042C-0.00753403 22.3198 -0.00753403 22.3354 -0.00753403 22.3509C0.000130735 22.4133 0.000130735 22.4757 0.000130735 22.5381C0.000130735 23.926 1.10386 25.0488 2.46818 25.0488C2.5295 25.0488 2.59082 25.0488 2.65214 25.041C2.6598 25.041 2.67513 25.041 2.6828 25.041C2.74412 25.0332 2.79777 25.0254 2.85909 25.0176C2.86675 25.0176 2.88208 25.0098 2.88975 25.0098C2.95106 25.002 3.00472 24.9864 3.06604 24.9708C3.12735 24.9552 3.18101 24.9396 3.23466 24.9163C3.24233 24.9163 3.24999 24.9085 3.25765 24.9085C3.31131 24.8929 3.36496 24.8695 3.41861 24.8461C3.42628 24.8383 3.43394 24.8383 3.44927 24.8305C3.50293 24.8071 3.55658 24.7837 3.61023 24.7525C3.61023 24.7525 3.61023 24.7525 3.6179 24.7525C3.67155 24.7213 3.71754 24.6979 3.77119 24.6667C3.77886 24.6589 3.78652 24.6589 3.79419 24.6511C3.84018 24.62 3.88617 24.5888 3.93215 24.5498C4.35372 24.2379 4.66797 23.7934 4.82893 23.2788C4.84426 23.2242 4.85959 23.1775 4.87492 23.1229C4.87492 23.1073 4.88258 23.0917 4.88258 23.0839C4.89025 23.0371 4.90558 22.9825 4.91324 22.9357C4.91324 22.9279 4.91324 22.9124 4.92091 22.9046C4.92857 22.8578 4.93624 22.811 4.93624 22.7564C4.93624 22.7408 4.93624 22.7174 4.9439 22.7018C4.95157 22.6472 4.95157 22.5849 4.95157 22.5303C4.95157 22.3354 4.92857 22.156 4.89025 21.9767L11.3746 17.6882L9.97965 16.7759ZM2.46818 23.5127C1.93932 23.5127 1.51009 23.0761 1.51009 22.5381C1.51009 22.0001 1.93932 21.5712 2.46818 21.5712C2.99705 21.5712 3.42628 22.0079 3.42628 22.5381C3.42628 23.0761 2.99705 23.5127 2.46818 23.5127Z" fill="#EB3B5A"/>
</g>
</g>
</g>
</g>
</g>
<defs>
<clipPath id="clip0_101_1216">
<rect width="122" height="32" fill="white" transform="translate(0 0.456177)"/>
</clipPath>
</defs>
</svg>
