<svg width="122" height="32" viewBox="0 0 122 32" fill="none" xmlns="http://www.w3.org/2000/svg">
<g id="Frame" clip-path="url(#clip0_101_1176)">
<g id="XMLID 65">
<path id="XMLID 69" d="M72.2176 10.5419C70.5543 10.5419 69.2436 11.2358 68.5155 12.5146V10.8226H66.4613V25.6608H68.5231V19.6881C69.2513 20.959 70.562 21.6608 72.2252 21.6608C75.1455 21.6608 77.3146 19.2124 77.3146 16.1013C77.3146 12.9902 75.1378 10.5419 72.2176 10.5419ZM71.9033 19.8284C69.9641 19.8284 68.5155 18.3937 68.5155 16.1013C68.5155 13.8089 69.9641 12.3742 71.9033 12.3742C73.9191 12.3742 75.3295 14.0273 75.3295 16.1013C75.3371 18.1754 73.9268 19.8284 71.9033 19.8284ZM78.9012 21.3801H80.9554V6.54187H78.9012V21.3801ZM60.1609 10.5419C58.421 10.5419 57.164 11.4775 56.5201 12.8343C55.8763 11.3372 54.6193 10.5419 52.8947 10.5419C51.4077 10.5419 50.2504 11.3606 49.7062 12.5302V10.8148H47.652V21.3723H49.7062V15.7738C49.7062 13.9181 50.8635 12.3664 52.4885 12.3664C54.1364 12.3664 54.9565 13.4814 54.9565 15.6101V21.3645H57.0107V15.766C57.0107 13.9103 58.168 12.3586 59.793 12.3586C61.4409 12.3586 62.261 13.4737 62.261 15.6023V21.3567H64.3075V15.462C64.3075 12.3742 62.7592 10.5419 60.1609 10.5419ZM43.3597 21.3801H45.4139V10.8226H43.3597V21.3801ZM44.3791 6.33914C43.5973 6.33914 43.0071 6.91614 43.0071 7.69587C43.0071 8.4756 43.5973 9.0526 44.3791 9.0526C45.1839 9.0526 45.7665 8.4756 45.7665 7.69587C45.7665 6.91614 45.1763 6.33914 44.3791 6.33914ZM83.1858 21.3801H85.24V10.8226H83.1858V21.3801ZM38.5846 15.462L36.883 15.0643C35.1814 14.6666 34.6679 14.3703 34.6679 13.6296C34.6679 12.8499 35.7486 12.2963 37.0746 12.2963C38.324 12.2963 39.5427 12.8577 40.0869 13.7076L41.6735 12.7485C41.2979 12.1325 40.6924 11.5945 39.8493 11.1735C39.0291 10.7524 38.1094 10.5341 37.1053 10.5341C34.5759 10.5341 32.698 11.8128 32.698 13.7388C32.698 15.2748 33.7558 16.1871 35.9479 16.6861L37.6495 17.0838C39.3127 17.4815 39.8646 17.7777 39.8646 18.5575C39.8646 19.3372 38.6536 19.8908 37.1436 19.8908C35.672 19.8908 34.3996 19.2358 33.7941 18.2768L32.1922 19.2358C32.6061 19.8908 33.2499 20.4678 34.1314 20.9278C35.0128 21.4035 36.0092 21.6452 37.1053 21.6452C39.788 21.6452 41.8268 20.3742 41.8268 18.4405C41.8344 16.8811 40.7767 15.961 38.5846 15.462ZM84.2052 6.33914C83.4234 6.33914 82.8333 6.91614 82.8333 7.69587C82.8333 8.4756 83.4234 9.0526 84.2052 9.0526C85.0101 9.0526 85.5926 8.4756 85.5926 7.69587C85.5926 6.91614 85.0101 6.33914 84.2052 6.33914ZM118.75 15.4698L117.049 15.0721C115.347 14.6744 114.834 14.3781 114.834 13.6374C114.834 12.8577 115.914 12.3041 117.24 12.3041C118.49 12.3041 119.747 12.9044 120.291 13.7621L121.839 12.7641C121.464 12.1481 120.858 11.6101 120.015 11.189C119.195 10.768 118.275 10.5497 117.271 10.5497C114.742 10.5497 112.864 11.8284 112.864 13.7544C112.864 15.2904 113.922 16.2027 116.114 16.7017L117.815 17.0994C119.478 17.497 120.03 17.7933 120.03 18.5731C120.03 19.3528 118.819 19.9064 117.309 19.9064C115.838 19.9064 114.343 18.9473 113.738 17.9883L112.136 18.9473C112.55 19.6023 113.416 20.4834 114.297 20.9434C115.179 21.4191 116.175 21.6608 117.271 21.6608C119.954 21.6608 121.993 20.3898 121.993 18.4561C122 16.8811 120.942 15.9688 118.75 15.4698ZM95.5951 12.5224C94.8669 11.2436 93.5563 10.5497 91.893 10.5497C88.9727 10.5497 86.8036 12.998 86.8036 16.1091C86.8036 19.2202 88.9804 21.6686 91.893 21.6686C93.5563 21.6686 94.8669 20.9746 95.5951 19.6959V21.3879H97.6492V19.4931C96.9211 18.5653 96.4995 17.3801 96.5225 16.0779C96.4995 14.7758 96.9211 13.5906 97.6492 12.6627V7.883H95.5951V12.5224ZM92.2073 19.8284C90.1914 19.8284 88.7811 18.1754 88.7811 16.1013C88.7811 14.0273 90.1914 12.3742 92.2073 12.3742C94.1465 12.3742 95.5951 13.8089 95.5951 16.1013C95.5951 18.3937 94.1465 19.8284 92.2073 19.8284ZM109.852 19.8128C108.618 19.8128 107.989 18.9551 107.989 17.2397V12.6549H111.806V10.8226H107.989V7.93759H105.935V10.8226H103.007C105.398 11.3372 107.115 13.4659 107.069 16.0701C107.092 17.2319 106.755 18.308 106.165 19.1813C106.632 20.8343 107.805 21.6608 109.675 21.6608C110.618 21.6608 111.576 21.3801 112.143 20.9824L111.637 19.3294C111.109 19.6491 110.518 19.8128 109.852 19.8128Z" fill="white"/>
<path id="XMLID 66" d="M101.796 12.7017C103.681 12.6627 105.145 14.1754 105.107 16.0702C105.138 17.9649 103.681 19.4776 101.796 19.4386C99.9102 19.4776 98.4462 17.9649 98.4845 16.0702C98.4539 14.1754 99.9179 12.6627 101.796 12.7017Z" fill="white"/>
</g>
<g id="XMLID 1">
<g id="XMLID 3">
<g id="XMLID 20">
<g id="XMLID 21">
<path id="XMLID 22" d="M29.6627 21.6687C29.6551 21.6064 29.6398 21.544 29.6244 21.4816C29.6244 21.4738 29.6244 21.466 29.6168 21.4582C29.6014 21.3958 29.5861 21.3413 29.5631 21.2789V21.2711C29.5478 21.2165 29.5248 21.1619 29.5018 21.1073C29.5018 21.0995 29.4941 21.0917 29.4941 21.0839C29.4711 21.0294 29.4481 20.9748 29.4175 20.928C29.4098 20.9202 29.4098 20.9124 29.4021 20.8968C29.3485 20.7877 29.2795 20.6863 29.2105 20.5849C29.2105 20.5771 29.2029 20.5771 29.2029 20.5693C29.1645 20.5225 29.1262 20.468 29.0879 20.4212C28.789 20.0781 28.4057 19.8208 27.9688 19.6804C27.8309 19.6415 27.6929 19.6025 27.5473 19.5869C27.164 19.5401 26.7885 19.5791 26.4435 19.696C26.3209 19.735 26.2059 19.7896 26.091 19.852C26.0526 19.8676 26.022 19.891 25.9837 19.9066C25.976 19.9066 25.976 19.9144 25.9683 19.9144C25.9377 19.93 25.907 19.9533 25.8764 19.9689L25.8534 19.9845C25.8227 20.0001 25.7997 20.0235 25.7767 20.0391C25.769 20.0469 25.7614 20.0547 25.7537 20.0547C25.6924 20.1015 25.6234 20.1561 25.5698 20.2107L15.6056 13.5908L15.6132 4.88901C16.1574 4.70968 16.6097 4.3432 16.9162 3.86757L24.3664 8.81884C24.5197 8.31202 24.8033 7.86757 25.1712 7.5167L17.2995 2.29252C17.2842 2.13658 17.2612 1.98063 17.2152 1.83248C17.2075 1.81689 17.2075 1.80129 17.1998 1.7857C17.1922 1.77011 17.1922 1.74671 17.1845 1.73112C17.1768 1.71552 17.1692 1.69213 17.1692 1.67654C17.1615 1.66094 17.1539 1.64535 17.1539 1.62196C17.1462 1.60636 17.1385 1.58297 17.1309 1.56738C17.1232 1.55178 17.1155 1.53619 17.1079 1.52059C17.1002 1.505 17.0925 1.48161 17.0849 1.46601C17.0772 1.45042 17.0695 1.43482 17.0619 1.41923C17.0542 1.40363 17.0465 1.38804 17.0389 1.36465C17.0312 1.34905 17.0236 1.33346 17.0159 1.31786C17.0082 1.30227 17.0006 1.28667 16.9852 1.26328C16.9776 1.24769 16.9699 1.23209 16.9622 1.2165C16.9546 1.2009 16.9392 1.18531 16.9316 1.16972C16.9239 1.15412 16.9162 1.13853 16.9009 1.13073C16.8933 1.11513 16.8779 1.09954 16.8703 1.08395C16.8626 1.06835 16.8549 1.06055 16.8396 1.04496C16.8319 1.02936 16.8166 1.01377 16.8089 0.998176C16.8013 0.982581 16.7859 0.974784 16.7783 0.959189C16.7553 0.928 16.7323 0.904608 16.7093 0.873419C16.7016 0.857825 16.6863 0.850028 16.6786 0.834433C16.6633 0.818838 16.6556 0.803244 16.6403 0.795447C16.625 0.779852 16.6173 0.772055 16.602 0.75646C16.5867 0.740866 16.579 0.733068 16.5637 0.717474C16.5483 0.701879 16.5407 0.694082 16.5253 0.678488C16.51 0.662893 16.5024 0.655096 16.487 0.639501C16.4717 0.623907 16.464 0.616109 16.4487 0.600515C16.4334 0.58492 16.418 0.577123 16.4104 0.569326C16.395 0.561528 16.3797 0.545934 16.3721 0.538137C16.3567 0.530339 16.3414 0.514745 16.3261 0.506948C16.3107 0.49915 16.2954 0.483556 16.2801 0.475758C16.2647 0.467961 16.2494 0.452367 16.2341 0.444569C16.2188 0.436772 16.2034 0.421178 16.1881 0.41338C16.1728 0.405583 16.1574 0.397786 16.1421 0.382191C16.1268 0.374394 16.1114 0.358799 16.0885 0.351002C16.0731 0.343205 16.0578 0.335408 16.0501 0.32761C16.0271 0.312016 16.0118 0.304218 15.9888 0.296421C15.9811 0.288624 15.9658 0.280827 15.9582 0.280827C15.9275 0.265232 15.8968 0.249638 15.8585 0.234043C15.8508 0.226246 15.8355 0.226246 15.8279 0.218448C15.8049 0.210651 15.7819 0.195057 15.7589 0.187259C15.7435 0.179462 15.7282 0.179462 15.7205 0.171665C15.6976 0.163868 15.6822 0.15607 15.6592 0.148273C15.6439 0.140476 15.6286 0.140476 15.6132 0.132678C15.5902 0.124881 15.5749 0.117084 15.5519 0.117084C15.5366 0.109287 15.5213 0.109287 15.5059 0.101489C15.4829 0.0936921 15.4676 0.0936921 15.4446 0.0858949C15.4293 0.0780976 15.414 0.0780976 15.3986 0.0780976C15.3756 0.0703003 15.3603 0.0703003 15.3373 0.062503C15.322 0.062503 15.3066 0.0547058 15.2913 0.0547058C15.2683 0.0469085 15.2453 0.0469085 15.23 0.0469085C15.2147 0.0469085 15.1993 0.0391112 15.184 0.0391112C15.161 0.0391112 15.138 0.031314 15.115 0.031314C15.0997 0.031314 15.0844 0.031314 15.069 0.0235167C15.046 0.0235167 15.0154 0.0157194 14.9924 0.0157194C14.9771 0.0157194 14.9694 0.0157194 14.9541 0.0157194C14.9157 0.0157194 14.8774 0.0157194 14.8391 0.0157194C14.8008 0.0157194 14.7548 0.0157194 14.7165 0.0157194C14.7011 0.0157194 14.6858 0.0157194 14.6781 0.0157194C14.6475 0.0157194 14.6245 0.0235167 14.5938 0.0235167C14.5785 0.0235167 14.5632 0.031314 14.5478 0.031314C14.5248 0.031314 14.5018 0.0391112 14.4789 0.0391112C14.4635 0.0391112 14.4405 0.0469085 14.4252 0.0469085C14.4022 0.0547058 14.3792 0.0547058 14.3562 0.062503C14.3409 0.062503 14.3179 0.0703003 14.3026 0.0780976C14.2796 0.0858949 14.2642 0.0858949 14.2412 0.0936921C14.2259 0.101489 14.2029 0.101489 14.1876 0.109287C14.1646 0.117084 14.1493 0.117084 14.1263 0.124881C14.1109 0.132678 14.088 0.140476 14.0726 0.140476C14.0573 0.148273 14.0343 0.15607 14.019 0.163868C14.0036 0.171665 13.9806 0.179462 13.9653 0.187259C13.95 0.195057 13.927 0.202854 13.9117 0.210651C13.8963 0.218448 13.8733 0.226246 13.858 0.234043C13.8427 0.24184 13.8273 0.249638 13.8044 0.257435C13.789 0.265232 13.766 0.273029 13.7507 0.288624C13.7354 0.296421 13.72 0.304218 13.7047 0.312016C13.6817 0.319813 13.6664 0.335408 13.6511 0.343205C13.6357 0.351002 13.6204 0.358799 13.6051 0.366597C13.5821 0.374394 13.5667 0.389988 13.5438 0.405583C13.5284 0.41338 13.5208 0.421178 13.5054 0.428975C13.4824 0.444569 13.4671 0.452367 13.4441 0.467961C13.4364 0.475758 13.4211 0.483556 13.4135 0.491353C13.3905 0.506948 13.3751 0.522542 13.3521 0.538137C13.3445 0.545934 13.3291 0.553731 13.3215 0.561528C13.2985 0.577123 13.2832 0.592718 13.2602 0.616109C13.2525 0.623907 13.2448 0.631704 13.2372 0.639501C13.2142 0.655096 13.1912 0.678488 13.1758 0.701879C13.1682 0.709677 13.1682 0.709677 13.1605 0.717474C13.1375 0.740866 13.1145 0.764258 13.0915 0.787649C12.693 1.19311 12.44 1.73892 12.394 2.3471C12.3864 2.41728 12.3864 2.47966 12.3864 2.54983C12.3864 3.07225 12.5473 3.55568 12.8156 3.96114C12.8233 3.97673 12.8309 3.99233 12.8463 4.00013C12.8693 4.03131 12.8922 4.0703 12.9229 4.10149C12.9306 4.10929 12.9382 4.11708 12.9382 4.12488C12.9612 4.15607 12.9842 4.17946 13.0072 4.20285C13.0149 4.21065 13.0225 4.22625 13.0379 4.23404C13.0609 4.25744 13.0839 4.28862 13.1069 4.31202C13.1145 4.31981 13.1222 4.32761 13.1222 4.32761C13.1528 4.3588 13.1835 4.38999 13.2218 4.42118C13.2295 4.42898 13.2295 4.42898 13.2372 4.43677C13.2678 4.46016 13.2985 4.49135 13.3291 4.51475C13.3368 4.52254 13.3445 4.52254 13.3521 4.53034C13.3905 4.56153 13.4211 4.58492 13.4594 4.61611C13.6587 4.75646 13.8887 4.87342 14.1263 4.95139L14.1186 13.6454L12.3404 14.7526L13.7277 15.6726L14.8391 14.9397L24.8033 21.5596C24.7726 21.7233 24.7496 21.9027 24.7496 22.0742C24.7496 22.3393 24.788 22.5966 24.8646 22.8383L17.3455 27.813C17.6291 28.2496 17.8054 28.7721 17.8284 29.3335L25.7537 24.1015C26.045 24.3198 26.3822 24.4758 26.7501 24.5459C26.7961 24.5537 26.8421 24.5615 26.8881 24.5693C26.9188 24.5771 26.9418 24.5771 26.9724 24.5771C26.9954 24.5771 27.0261 24.5849 27.0491 24.5849C27.1027 24.5927 27.1487 24.5927 27.2024 24.5927C27.2254 24.5927 27.2483 24.5927 27.279 24.5927H27.3173C27.348 24.5927 27.371 24.5927 27.4016 24.5849C27.417 24.5849 27.4323 24.5849 27.44 24.5849C27.4706 24.5849 27.4936 24.5771 27.5243 24.5771L27.5626 24.5693C27.5933 24.5615 27.6239 24.5615 27.6469 24.5537C27.6546 24.5537 27.6699 24.5537 27.6776 24.5459C27.7082 24.5381 27.7389 24.5303 27.7695 24.5303C27.7772 24.5303 27.7849 24.5303 27.7925 24.5225C27.8232 24.5147 27.8615 24.5069 27.8922 24.4992H27.8999C27.9382 24.4914 27.9688 24.4758 28.0072 24.468C28.2754 24.3822 28.5207 24.2418 28.7353 24.0703C28.766 24.0469 28.7966 24.0235 28.8196 24.0001C28.8273 24.0001 28.8273 23.9923 28.8273 23.9923C28.8503 23.9689 28.8809 23.9455 28.9039 23.9222C28.9116 23.9144 28.9193 23.9066 28.9193 23.9066C28.9423 23.8832 28.9653 23.8676 28.9806 23.8442C28.9882 23.8364 28.9959 23.8286 29.0036 23.8208C29.0189 23.7974 29.0419 23.7818 29.0572 23.7584C29.0649 23.7506 29.0802 23.735 29.0879 23.7272C29.1032 23.7116 29.1185 23.6882 29.1339 23.6726C29.1415 23.657 29.1569 23.6492 29.1645 23.6337C29.1799 23.6181 29.1952 23.5947 29.2029 23.5791C29.2105 23.5635 29.2259 23.5479 29.2335 23.5323C29.2488 23.5167 29.2565 23.4933 29.2718 23.4777C29.2795 23.4621 29.2948 23.4465 29.3025 23.4309C29.3102 23.4153 29.3255 23.3919 29.3332 23.3763C29.3408 23.3607 29.3485 23.3452 29.3638 23.3296C29.3715 23.3062 29.3868 23.2906 29.3945 23.2672C29.4021 23.2516 29.4098 23.236 29.4175 23.2204C29.4251 23.197 29.4405 23.1736 29.4481 23.1502C29.4558 23.1346 29.4635 23.1268 29.4635 23.1112C29.4711 23.0878 29.4865 23.0645 29.4941 23.0333C29.5018 23.0177 29.5018 23.0099 29.5095 22.9943C29.5171 22.9631 29.5324 22.9397 29.5401 22.9085C29.5401 22.9007 29.5478 22.8929 29.5478 22.8773C29.5554 22.8461 29.5708 22.8149 29.5784 22.7838C29.5784 22.776 29.5861 22.7682 29.5861 22.7604C29.5938 22.7292 29.6014 22.698 29.6091 22.659C29.6091 22.6512 29.6091 22.6434 29.6168 22.6356C29.6244 22.6044 29.6321 22.5654 29.6398 22.5342C29.6398 22.5264 29.6398 22.5186 29.6474 22.5108C29.6551 22.4797 29.6551 22.4485 29.6627 22.4173C29.6627 22.4017 29.6627 22.3939 29.6704 22.3783C29.6704 22.3549 29.6781 22.3237 29.6781 22.3003C29.6781 22.2847 29.6781 22.2613 29.6857 22.2457C29.6857 22.2223 29.6857 22.2068 29.6857 22.1834C29.6857 22.16 29.6857 22.1288 29.6857 22.1054V22.0742C29.6934 21.9339 29.6857 21.8013 29.6627 21.6687ZM14.8391 3.48551C14.3102 3.48551 13.881 3.04886 13.881 2.51085C13.881 1.97283 14.3102 1.53619 14.8391 1.53619C15.368 1.53619 15.7972 1.97283 15.7972 2.51085C15.7895 3.04886 15.368 3.48551 14.8391 3.48551ZM27.2254 23.0567C26.6965 23.0567 26.2749 22.62 26.2749 22.082C26.2749 21.544 26.7042 21.1151 27.2254 21.1151C27.7542 21.1151 28.1834 21.5518 28.1834 22.082C28.1758 22.62 27.7542 23.0567 27.2254 23.0567Z" fill="white"/>
</g>
</g>
<g id="XMLID 15">
<g id="XMLID 16">
<path id="XMLID 17" d="M29.5862 8.99808C29.2872 8.01562 28.4058 7.29047 27.3557 7.23589C27.3097 7.23589 27.2714 7.23589 27.2254 7.23589C27.1871 7.23589 27.1411 7.23589 27.1028 7.23589C27.0874 7.23589 27.0721 7.23589 27.0644 7.23589C27.0415 7.23589 27.0108 7.23589 26.9878 7.24369C26.9725 7.24369 26.9571 7.24369 26.9418 7.25149C26.9188 7.25149 26.8958 7.25928 26.8728 7.25928C26.8575 7.25928 26.8345 7.26708 26.8192 7.26708C26.7962 7.26708 26.7808 7.27488 26.7579 7.27488C26.7425 7.27488 26.7195 7.28268 26.7042 7.29047C26.6889 7.29827 26.6659 7.29827 26.6505 7.30607C26.6276 7.31387 26.6122 7.31387 26.5892 7.32166C26.5739 7.32946 26.5586 7.32946 26.5356 7.33726C26.5126 7.34505 26.4973 7.35285 26.4743 7.35285C26.4589 7.36065 26.4436 7.36065 26.4359 7.36845C26.4129 7.37624 26.3899 7.38404 26.367 7.39184C26.3593 7.39184 26.3516 7.39964 26.344 7.39964C26.2213 7.44642 26.0987 7.5088 25.9837 7.57897C25.976 7.57897 25.976 7.58677 25.976 7.58677C25.9531 7.60236 25.9224 7.61796 25.8994 7.63355C25.8917 7.63355 25.8917 7.64135 25.8841 7.64135C25.8611 7.65695 25.8304 7.67254 25.8074 7.69593C25.7998 7.69593 25.7998 7.70373 25.7921 7.70373C25.7691 7.71932 25.7384 7.74272 25.7154 7.75831L25.7078 7.76611C25.6848 7.7895 25.6541 7.80509 25.6311 7.82849C25.2402 8.16377 24.9566 8.61601 24.834 9.13843C24.8263 9.18521 24.811 9.23199 24.8033 9.27878C24.8033 9.28658 24.8033 9.29437 24.7957 9.30217C24.788 9.34116 24.7803 9.38014 24.7803 9.41913C24.7803 9.43472 24.7803 9.44252 24.7727 9.45812C24.765 9.4971 24.765 9.52829 24.765 9.56728C24.765 9.58287 24.765 9.59067 24.765 9.60626C24.765 9.65305 24.7573 9.69983 24.7573 9.75441C24.7573 9.80899 24.7573 9.85578 24.765 9.90256C24.765 9.91815 24.765 9.94155 24.765 9.95714C24.7803 10.1287 24.811 10.2924 24.8493 10.4484L18.3113 14.7681L19.6986 15.6881L25.6925 11.7271C25.9147 11.9065 26.1677 12.0468 26.4436 12.1404L26.4359 19.1423C26.8038 19.041 27.2024 19.0098 27.601 19.0566C27.7236 19.0722 27.8386 19.0955 27.9459 19.1267L27.9536 12.1482C28.2678 12.0468 28.5591 11.8831 28.8043 11.6725L28.812 11.6647C28.8503 11.6336 28.881 11.6024 28.9193 11.5634C28.9346 11.5478 28.95 11.5322 28.9653 11.5166C28.996 11.4854 29.019 11.462 29.042 11.4308C29.0573 11.4152 29.0649 11.4074 29.0803 11.3918C29.1109 11.3529 29.1493 11.3139 29.1799 11.2671C29.1953 11.2515 29.2029 11.2359 29.2182 11.2203C29.2412 11.1891 29.2642 11.1501 29.2872 11.1189C29.2949 11.1033 29.3102 11.0877 29.3179 11.0722C29.3485 11.0254 29.3715 10.9786 29.4022 10.9318C29.4099 10.9162 29.4175 10.9006 29.4252 10.885C29.4482 10.846 29.4635 10.807 29.4788 10.7681C29.4865 10.7525 29.4942 10.7369 29.5018 10.7213C29.5248 10.6667 29.5402 10.6199 29.5632 10.5653C29.5708 10.5497 29.5708 10.5419 29.5785 10.5263C29.5938 10.4796 29.6091 10.4328 29.6168 10.386C29.6245 10.3704 29.6245 10.3548 29.6321 10.3392C29.6475 10.2846 29.6551 10.2222 29.6705 10.1677C29.6705 10.1599 29.6705 10.1521 29.6705 10.1443C29.6781 10.0897 29.6858 10.0351 29.6935 9.98053C29.6935 9.96494 29.6935 9.94934 29.7011 9.93375C29.7088 9.87137 29.7088 9.80899 29.7088 9.74661C29.6935 9.4893 29.6551 9.23199 29.5862 8.99808ZM27.2254 10.7135C26.6965 10.7135 26.275 10.2768 26.275 9.73882C26.275 9.20081 26.7042 8.76416 27.2254 8.76416C27.7543 8.76416 28.1835 9.20081 28.1835 9.73882C28.1758 10.2846 27.7543 10.7135 27.2254 10.7135Z" fill="white"/>
</g>
</g>
<g id="XMLID 9">
<g id="XMLID 10">
<path id="XMLID 11" d="M17.3377 17.2477L15.9504 16.3276L14.839 17.0606L4.85179 10.4251C4.91311 10.2068 4.94377 9.98065 4.94377 9.74673C4.94377 9.52841 4.91311 9.31788 4.86712 9.11515L12.3326 4.17948C12.049 3.74283 11.8727 3.22042 11.8497 2.65901L4.05466 7.81301C3.84771 7.63367 3.6101 7.49332 3.3495 7.39196C3.32651 7.38416 3.29585 7.36857 3.27285 7.36077C3.26519 7.36077 3.25752 7.35297 3.24986 7.35297C3.2192 7.34517 3.19621 7.33738 3.16555 7.32958C3.15788 7.32958 3.15022 7.32958 3.14255 7.32958C3.11189 7.32178 3.0889 7.31398 3.05824 7.30619C3.05058 7.30619 3.04291 7.29839 3.03525 7.29839C3.00459 7.29059 2.98159 7.2828 2.95093 7.2828C2.94327 7.2828 2.9356 7.275 2.92027 7.275C2.89728 7.2672 2.86662 7.2672 2.83596 7.2594C2.8283 7.2594 2.81297 7.2594 2.8053 7.25161C2.78231 7.24381 2.75165 7.24381 2.72866 7.24381C2.72099 7.24381 2.70566 7.24381 2.698 7.24381C2.66734 7.24381 2.64434 7.23601 2.61368 7.23601C2.60602 7.23601 2.59069 7.23601 2.58302 7.23601C2.5447 7.23601 2.50638 7.23601 2.46805 7.23601C1.10373 7.22821 0 8.35882 0 9.74673C0 9.80911 0 9.87149 0.00766476 9.93387C0.00766476 9.94946 0.00766476 9.95726 0.00766476 9.97285C0.0153295 10.0352 0.0229943 10.0898 0.030659 10.1522C0.030659 10.16 0.030659 10.1756 0.0383238 10.1834C0.0459886 10.238 0.0613181 10.2925 0.0689829 10.3471C0.0689829 10.3549 0.0689829 10.3627 0.0766476 10.3705C0.0919771 10.4251 0.107307 10.4875 0.122636 10.5421C0.122636 10.5499 0.130301 10.5654 0.130301 10.5732C0.14563 10.6278 0.168625 10.6824 0.191619 10.737C0.191619 10.7448 0.191619 10.7448 0.199284 10.7526C0.222278 10.8072 0.245272 10.8539 0.268267 10.9085C0.275931 10.9163 0.275931 10.9241 0.283596 10.9319C0.30659 10.9865 0.33725 11.0333 0.367909 11.0801C0.375573 11.0879 0.375573 11.0957 0.383238 11.1035C0.413897 11.1502 0.444556 11.2048 0.48288 11.2516C0.521204 11.2984 0.551863 11.3452 0.590187 11.392C0.597851 11.3998 0.605516 11.4076 0.605516 11.4153C0.64384 11.4621 0.682164 11.5011 0.728152 11.5479L0.735817 11.5557C0.774141 11.5947 0.82013 11.6337 0.866118 11.6727L0.873783 11.6805C0.919771 11.7194 0.96576 11.7584 1.01175 11.7896C1.01941 11.7974 1.02708 11.7974 1.02708 11.8052C1.12672 11.8754 1.22636 11.9378 1.33367 11.9923C1.34133 11.9923 1.349 12.0001 1.349 12.0001C1.40265 12.0235 1.4563 12.0547 1.50996 12.0781C1.51762 12.0781 1.51762 12.0781 1.52529 12.0859C1.57894 12.1093 1.64026 12.1327 1.70158 12.1483C1.93918 12.2263 2.19212 12.2653 2.45272 12.2653C2.73632 12.2653 3.00459 12.2185 3.25752 12.1249C3.28052 12.1171 3.29585 12.1093 3.31884 12.1015C3.35717 12.0859 3.39549 12.0703 3.43381 12.0547C3.44914 12.0469 3.47214 12.0391 3.48747 12.0313C3.51046 12.0157 3.54112 12.0079 3.56411 11.9923C3.57944 11.9846 3.60244 11.9768 3.61777 11.9612C3.65609 11.9378 3.69442 11.9222 3.72507 11.8988C3.81705 11.8442 3.90903 11.7818 3.99334 11.7116L14.0802 18.4017L14.0725 27.1035C13.5283 27.2828 13.0761 27.6493 12.7695 28.1249L5.28869 23.1502C5.10473 23.6415 4.80581 24.0781 4.4149 24.4134L12.3863 29.7077C12.4016 29.8637 12.4246 30.0196 12.4706 30.1678C12.4782 30.1834 12.4782 30.199 12.4859 30.2146C12.4936 30.2302 12.4936 30.2536 12.5012 30.2692C12.5089 30.2847 12.5166 30.3081 12.5166 30.3237C12.5242 30.3393 12.5319 30.3549 12.5319 30.3783C12.5395 30.3939 12.5472 30.4173 12.5549 30.4329C12.5625 30.4485 12.5702 30.4641 12.5779 30.4797C12.5855 30.4953 12.5932 30.5187 12.6009 30.5343C12.6085 30.5499 12.6162 30.5654 12.6239 30.581C12.6315 30.5966 12.6392 30.62 12.6469 30.6356C12.6545 30.6512 12.6622 30.6668 12.6699 30.6824C12.6775 30.698 12.6852 30.7136 12.7005 30.737C12.7082 30.7526 12.7158 30.7682 12.7235 30.7838C12.7312 30.7994 12.7465 30.815 12.7542 30.8384C12.7618 30.8539 12.7695 30.8695 12.7772 30.8773C12.7848 30.8929 12.8002 30.9085 12.8078 30.9241C12.8155 30.9397 12.8231 30.9475 12.8385 30.9631C12.8538 30.9787 12.8615 30.9943 12.8768 31.0099C12.8845 31.0177 12.8921 31.0333 12.8998 31.0411C12.9228 31.0723 12.9534 31.1113 12.9764 31.1424C12.9841 31.1502 12.9918 31.1658 13.0071 31.1736C13.0224 31.1892 13.0301 31.2048 13.0454 31.2126C13.0531 31.2282 13.0684 31.236 13.0761 31.2516C13.0914 31.2672 13.0991 31.275 13.1144 31.2906C13.1297 31.3062 13.1374 31.314 13.1527 31.3296C13.1681 31.3452 13.1834 31.353 13.1911 31.3686C13.2064 31.3842 13.214 31.392 13.2294 31.3998C13.2447 31.4153 13.26 31.4231 13.2754 31.4387C13.2907 31.4465 13.306 31.4621 13.3137 31.4699C13.329 31.4777 13.3444 31.4933 13.3597 31.5011C13.375 31.5089 13.3903 31.5245 13.4057 31.5323C13.421 31.5401 13.4363 31.5557 13.4517 31.5635C13.467 31.5713 13.4823 31.5869 13.4976 31.5947C13.513 31.6025 13.5283 31.6103 13.5436 31.6259C13.559 31.6337 13.5743 31.6493 13.5896 31.6571C13.605 31.6649 13.6203 31.6727 13.6356 31.6805C13.6509 31.6883 13.6739 31.7038 13.6969 31.7116C13.7123 31.7194 13.7199 31.7272 13.7353 31.735C13.7659 31.7506 13.7966 31.7662 13.8272 31.7818C13.8426 31.7896 13.8502 31.7896 13.8656 31.7974C13.8885 31.8052 13.9115 31.813 13.9269 31.8286C13.9422 31.8364 13.9575 31.8364 13.9729 31.8442C13.9959 31.852 14.0112 31.8598 14.0342 31.8676C14.0495 31.8754 14.0648 31.8754 14.0802 31.8832C14.1032 31.891 14.1185 31.8988 14.1415 31.8988C14.1568 31.9066 14.1721 31.9066 14.1875 31.9144C14.2105 31.9222 14.2258 31.9222 14.2488 31.93C14.2641 31.9378 14.2795 31.9378 14.2948 31.9456C14.3178 31.9534 14.3331 31.9534 14.3561 31.9612C14.3714 31.9612 14.3868 31.969 14.4021 31.969C14.4251 31.9768 14.4481 31.9768 14.4634 31.9768C14.4787 31.9768 14.4941 31.9846 14.5094 31.9846C14.5324 31.9846 14.5554 31.9923 14.5784 31.9923C14.5937 31.9923 14.609 31.9923 14.6244 32.0001C14.6474 32.0001 14.678 32.0079 14.701 32.0079C14.7163 32.0079 14.724 32.0079 14.7393 32.0079C14.7777 32.0079 14.816 32.0079 14.8543 32.0079C14.8926 32.0079 14.9386 32.0079 14.9769 32.0079C14.9923 32.0079 15.0076 32.0079 15.0153 32.0079C15.0459 32.0079 15.0689 32.0001 15.0996 32.0001C15.1149 32.0001 15.1302 31.9923 15.1532 31.9923C15.1762 31.9923 15.1992 31.9846 15.2222 31.9846C15.2375 31.9846 15.2605 31.9768 15.2759 31.9768C15.2989 31.9768 15.3219 31.969 15.3449 31.969C15.3602 31.9612 15.3832 31.9612 15.3985 31.9534C15.4215 31.9456 15.4368 31.9456 15.4598 31.9378C15.4752 31.93 15.4981 31.93 15.5135 31.9222C15.5365 31.9144 15.5518 31.9144 15.5748 31.9066C15.5901 31.8988 15.6131 31.891 15.6284 31.891C15.6438 31.8832 15.6668 31.8754 15.6821 31.8754C15.6974 31.8676 15.7204 31.8598 15.7358 31.852C15.7511 31.8442 15.7741 31.8364 15.7894 31.8286C15.8124 31.8208 15.8277 31.813 15.8507 31.8052C15.8661 31.7974 15.8814 31.7896 15.8967 31.7818C15.9197 31.774 15.935 31.7662 15.958 31.7506C15.9734 31.7428 15.9887 31.735 16.004 31.7272C16.027 31.7194 16.0423 31.7038 16.0653 31.6961C16.0807 31.6883 16.096 31.6805 16.1037 31.6727C16.1267 31.6571 16.142 31.6493 16.165 31.6337C16.1803 31.6259 16.188 31.6181 16.2033 31.6103C16.2263 31.5947 16.2416 31.5869 16.2646 31.5713C16.2723 31.5635 16.2876 31.5557 16.2953 31.5479C16.3183 31.5323 16.3336 31.5167 16.3566 31.5011C16.3643 31.4933 16.3719 31.4855 16.3873 31.4777C16.4103 31.4621 16.4333 31.4465 16.4486 31.4231C16.4562 31.4153 16.4639 31.4076 16.4716 31.4076C16.4946 31.392 16.5176 31.3686 16.5406 31.3452C16.5482 31.3452 16.5482 31.3374 16.5559 31.3374C16.9391 30.9709 17.2074 30.4875 17.2994 29.9417C17.307 29.9027 17.3147 29.8637 17.3147 29.8247C17.3224 29.7857 17.3224 29.7467 17.33 29.7077C17.3377 29.6376 17.3377 29.5752 17.3377 29.505C17.3377 28.9826 17.1844 28.4992 16.9161 28.1015C16.9085 28.0859 16.8931 28.0703 16.8855 28.0547C16.8625 28.0235 16.8395 27.9846 16.8088 27.9534C16.8012 27.9378 16.7858 27.9222 16.7782 27.9144C16.7552 27.891 16.7398 27.8676 16.7168 27.8442C16.7092 27.8286 16.6939 27.8208 16.6862 27.8052C16.6555 27.774 16.6249 27.7428 16.5942 27.7116C16.5865 27.7038 16.5712 27.6883 16.5636 27.6805C16.5406 27.6571 16.5099 27.6337 16.4869 27.6103C16.4792 27.6025 16.4716 27.5947 16.4562 27.5869C16.4256 27.5557 16.3873 27.5323 16.3489 27.5011C16.3413 27.4933 16.3259 27.4855 16.3183 27.4777C16.2876 27.4543 16.2493 27.4309 16.2186 27.4076C16.211 27.3998 16.211 27.3998 16.2033 27.392C16.165 27.3686 16.1267 27.3452 16.0807 27.3218C15.935 27.236 15.7817 27.1736 15.6208 27.1191L15.6284 18.4251L17.3377 17.2477ZM2.46805 10.7136C1.93918 10.7136 1.50996 10.2769 1.50996 9.73894C1.50996 9.20092 1.93918 8.76428 2.46805 8.76428C2.99692 8.76428 3.42615 9.20092 3.42615 9.73894C3.42615 10.2847 2.99692 10.7136 2.46805 10.7136ZM15.7894 29.4894C15.7894 30.0274 15.3602 30.4641 14.8313 30.4641C14.3024 30.4641 13.8732 30.0274 13.8732 29.4894C13.8732 28.9514 14.3024 28.5148 14.8313 28.5148C15.3678 28.5226 15.7894 28.9514 15.7894 29.4894Z" fill="white"/>
</g>
</g>
<g id="XMLID 4">
<g id="XMLID 5">
<path id="XMLID 6" d="M9.97965 16.3197L4.10844 20.2028C3.85551 19.9766 3.55658 19.8051 3.23466 19.6959L3.24233 12.7018C2.99705 12.772 2.73645 12.8032 2.47585 12.8032C2.21525 12.8032 1.96997 12.772 1.7247 12.7096L1.71704 19.6959C1.34913 19.8129 1.01188 20.0234 0.743613 20.2963C0.735948 20.3041 0.720618 20.3197 0.712954 20.3275C0.682295 20.3587 0.651636 20.3899 0.628641 20.4211C0.613312 20.4367 0.605647 20.4523 0.590317 20.4679C0.559658 20.5069 0.521335 20.5536 0.490676 20.5926C0.483011 20.6004 0.475346 20.616 0.467681 20.6238C0.444687 20.6628 0.414028 20.694 0.391034 20.733C0.383369 20.7486 0.368039 20.7642 0.360375 20.7798C0.329715 20.8265 0.306721 20.8733 0.283727 20.9201C0.276062 20.9279 0.276062 20.9357 0.268397 20.9435C0.245403 20.9903 0.230074 21.0293 0.207079 21.0761C0.199415 21.0917 0.19175 21.1072 0.184085 21.1228C0.161091 21.1774 0.145761 21.2242 0.122767 21.2788C0.122767 21.2866 0.122767 21.2944 0.115102 21.2944C0.0997726 21.3412 0.0844431 21.3957 0.0691136 21.4503C0.0614488 21.4659 0.0614488 21.4815 0.0537841 21.4971C0.0384545 21.5517 0.0307898 21.6141 0.0154603 21.6686V21.6764C0.0077955 21.731 0.000130735 21.7934 -0.00753403 21.848C-0.00753403 21.8636 -0.00753403 21.8792 -0.00753403 21.8948C0.000130735 21.9571 0.000130735 22.0195 0.000130735 22.0819C0.000130735 23.4698 1.10386 24.5926 2.46818 24.5926C2.5295 24.5926 2.59082 24.5926 2.65214 24.5848C2.6598 24.5848 2.67513 24.5848 2.6828 24.5848C2.74412 24.577 2.79777 24.5692 2.85909 24.5614C2.86675 24.5614 2.88208 24.5536 2.88975 24.5536C2.95106 24.5458 3.00472 24.5302 3.06604 24.5147C3.12735 24.4991 3.18101 24.4835 3.23466 24.4601C3.24233 24.4601 3.24999 24.4523 3.25765 24.4523C3.31131 24.4367 3.36496 24.4133 3.41861 24.3899C3.42628 24.3821 3.43394 24.3821 3.44927 24.3743C3.50293 24.3509 3.55658 24.3275 3.61023 24.2963C3.61023 24.2963 3.61023 24.2963 3.6179 24.2963C3.67155 24.2651 3.71754 24.2417 3.77119 24.2106C3.77886 24.2028 3.78652 24.2028 3.79419 24.195C3.84018 24.1638 3.88617 24.1326 3.93215 24.0936C4.35372 23.7817 4.66797 23.3373 4.82893 22.8226C4.84426 22.7681 4.85959 22.7213 4.87492 22.6667C4.87492 22.6511 4.88258 22.6355 4.88258 22.6277C4.89025 22.5809 4.90558 22.5263 4.91324 22.4796C4.91324 22.4718 4.91324 22.4562 4.92091 22.4484C4.92857 22.4016 4.93624 22.3548 4.93624 22.3002C4.93624 22.2846 4.93624 22.2612 4.9439 22.2456C4.95157 22.1911 4.95157 22.1287 4.95157 22.0741C4.95157 21.8792 4.92857 21.6998 4.89025 21.5205L11.3746 17.232L9.97965 16.3197ZM2.46818 23.0566C1.93932 23.0566 1.51009 22.6199 1.51009 22.0819C1.51009 21.5439 1.93932 21.115 2.46818 21.115C2.99705 21.115 3.42628 21.5517 3.42628 22.0819C3.42628 22.6199 2.99705 23.0566 2.46818 23.0566Z" fill="white"/>
</g>
</g>
</g>
</g>
</g>
<defs>
<clipPath id="clip0_101_1176">
<rect width="122" height="32" fill="white"/>
</clipPath>
</defs>
</svg>
