<svg width="204" height="152" viewBox="0 0 204 152" fill="none" xmlns="http://www.w3.org/2000/svg">
<g id="blog-post/rafiki">
<g id="background-complete">
<path id="Vector" d="M203.994 133.575H0V133.677H203.994V133.575Z" fill="#E6E6E6"/>
<path id="Vector_2" d="M43.5895 137.447H29.5547V137.549H43.5895V137.447Z" fill="#E6E6E6"/>
<path id="Vector_3" d="M121.67 138.173H117.476V138.275H121.67V138.173Z" fill="#E6E6E6"/>
<path id="Vector_4" d="M55.7556 138.9H47.8569V139.002H55.7556V138.9Z" fill="#E6E6E6"/>
<path id="Vector_5" d="M171.269 138.659H160.792V138.761H171.269V138.659Z" fill="#E6E6E6"/>
<path id="Vector_6" d="M153.648 137.21H146.492V137.312H153.648V137.21Z" fill="#E6E6E6"/>
<path id="Vector_7" d="M111.581 137.047H73.3604V137.149H111.581V137.047Z" fill="#E6E6E6"/>
<path id="Vector_8" d="M96.693 115.379H17.9146C17.2975 115.378 16.706 115.132 16.27 114.695C15.834 114.258 15.5891 113.667 15.5891 113.049V2.30921C15.5945 1.69561 15.8417 1.1089 16.2772 0.676533C16.7126 0.244164 17.301 0.00105114 17.9146 0H96.693C97.3109 0 97.9034 0.245441 98.3403 0.682327C98.7772 1.11921 99.0226 1.71176 99.0226 2.32961V113.049C99.0226 113.667 98.7772 114.26 98.3403 114.697C97.9034 115.134 97.3109 115.379 96.693 115.379ZM17.9146 0.0815979C17.3245 0.0826786 16.759 0.317849 16.3421 0.735491C15.9252 1.15313 15.6911 1.71912 15.6911 2.30921V113.049C15.6911 113.639 15.9252 114.205 16.3421 114.623C16.759 115.041 17.3245 115.276 17.9146 115.277H96.693C97.2835 115.276 97.8495 115.041 98.267 114.623C98.6845 114.206 98.9196 113.64 98.9206 113.049V2.30921C98.9196 1.71874 98.6845 1.15277 98.267 0.735242C97.8495 0.317717 97.2835 0.0826764 96.693 0.0815979H17.9146Z" fill="#E6E6E6"/>
<path id="Vector_9" d="M184.945 115.379H106.163C105.545 115.378 104.953 115.132 104.517 114.695C104.08 114.259 103.834 113.667 103.833 113.049V2.30921C103.839 1.69524 104.088 1.10853 104.524 0.676278C104.96 0.244021 105.549 0.00103967 106.163 0H184.945C185.558 0.00212337 186.145 0.24571 186.58 0.677965C187.014 1.11022 187.261 1.69631 187.267 2.30921V113.049C187.267 113.666 187.022 114.257 186.587 114.694C186.152 115.13 185.562 115.377 184.945 115.379ZM106.163 0.0815979C105.572 0.0826764 105.006 0.317717 104.589 0.735242C104.171 1.15277 103.936 1.71874 103.935 2.30921V113.049C103.936 113.64 104.171 114.206 104.589 114.623C105.006 115.041 105.572 115.276 106.163 115.277H184.945C185.536 115.276 186.102 115.041 186.519 114.623C186.937 114.206 187.172 113.64 187.173 113.049V2.30921C187.172 1.71874 186.937 1.15277 186.519 0.735242C186.102 0.317717 185.536 0.0826764 184.945 0.0815979H106.163Z" fill="#E6E6E6"/>
<path id="Vector_10" d="M140.274 93.6782C140.05 93.6782 139.826 93.6782 139.597 93.6986C138.177 93.8011 136.796 94.2165 135.555 94.915C134.313 95.6135 133.242 96.5778 132.417 97.7388C131.592 98.8999 131.034 100.229 130.783 101.631C130.532 103.033 130.594 104.473 130.964 105.849C132.018 109.958 132.527 114.189 132.478 118.431V130.785C132.478 131.218 132.65 131.633 132.956 131.939C133.262 132.245 133.677 132.417 134.11 132.417H173.321V93.6782H140.274Z" fill="#F0F0F0"/>
<path id="Vector_11" d="M182.954 103.335C182.954 100.828 181.979 98.4195 180.236 96.6181C178.492 94.8167 176.117 93.764 173.611 93.6824C171.106 93.6008 168.666 94.4967 166.809 96.1809C164.952 97.865 163.823 100.205 163.66 102.707C163.588 103.764 163.693 104.826 163.97 105.848C165.024 109.958 165.533 114.188 165.484 118.431V130.785C165.484 131.218 165.656 131.633 165.962 131.939C166.268 132.245 166.683 132.417 167.116 132.417H179.498C179.931 132.417 180.346 132.245 180.652 131.939C180.958 131.633 181.13 131.218 181.13 130.785V117.705C181.094 113.726 181.597 109.761 182.623 105.918C182.85 105.076 182.961 104.207 182.954 103.335Z" fill="#FAFAFA"/>
<path id="Vector_12" d="M159.988 108.892H91.0342V132.404H159.988V108.892Z" fill="#F0F0F0"/>
<path id="Vector_13" d="M69.256 80.7241H135.501C137.437 80.7284 139.293 81.5006 140.66 82.8713C142.028 84.2419 142.796 86.0991 142.796 88.0353V114.208H61.9448V88.0353C61.9448 86.0962 62.7151 84.2366 64.0862 82.8655C65.4573 81.4944 67.3169 80.7241 69.256 80.7241Z" fill="#E6E6E6"/>
<path id="Vector_14" d="M78.1051 80.7241H145.056C145.969 80.7241 146.874 80.904 147.718 81.2536C148.562 81.6032 149.329 82.1156 149.975 82.7615C150.621 83.4075 151.133 84.1743 151.483 85.0183C151.832 85.8623 152.012 86.7668 152.012 87.6803V114.2H71.1489V87.6803C71.1489 85.8354 71.8818 84.0661 73.1864 82.7615C74.4909 81.457 76.2602 80.7241 78.1051 80.7241Z" fill="#FAFAFA"/>
<path id="Vector_15" d="M93.3394 106.746H159.523C160.086 106.746 160.625 106.969 161.023 107.367C161.421 107.765 161.645 108.304 161.645 108.867V114.2C161.645 114.762 161.421 115.302 161.023 115.7C160.625 116.098 160.086 116.321 159.523 116.321H93.3394C93.1717 116.321 93.0109 116.254 92.8923 116.136C92.7737 116.017 92.707 115.856 92.707 115.689V107.378C92.707 107.21 92.7737 107.049 92.8923 106.931C93.0109 106.812 93.1717 106.746 93.3394 106.746Z" fill="#E6E6E6"/>
<path id="Vector_16" d="M58.4729 93.6782C58.2485 93.6782 58.0241 93.6782 57.7957 93.6986C56.3741 93.799 54.9923 94.2126 53.7493 94.9099C52.5064 95.6071 51.4331 96.5707 50.6065 97.7316C49.7798 98.8925 49.2202 100.222 48.9677 101.624C48.7153 103.027 48.7763 104.468 49.1463 105.844C50.2003 109.954 50.7092 114.184 50.66 118.427V130.781C50.66 131.213 50.8319 131.629 51.1379 131.935C51.444 132.241 51.8591 132.413 52.2919 132.413H91.5036V93.6782H58.4729Z" fill="#F0F0F0"/>
<path id="Vector_17" d="M101.153 103.335C101.153 100.828 100.178 98.4195 98.4347 96.6181C96.6912 94.8167 94.3155 93.764 91.8099 93.6824C89.3043 93.6008 86.8651 94.4967 85.0081 96.1809C83.1511 97.865 82.0218 100.205 81.8589 102.707C81.787 103.764 81.8918 104.826 82.169 105.848C83.2229 109.958 83.7319 114.188 83.6826 118.431V130.785C83.6826 131.218 83.8545 131.633 84.1606 131.939C84.4666 132.245 84.8817 132.417 85.3146 132.417H97.697C98.1298 132.417 98.5449 132.245 98.851 131.939C99.157 131.633 99.3289 131.218 99.3289 130.785V117.705C99.2932 113.726 99.7955 109.761 100.822 105.918C101.049 105.076 101.16 104.207 101.153 103.335Z" fill="#FAFAFA"/>
<path id="Vector_18" d="M172.607 133.579H59.1582C58.8465 133.579 58.5477 133.456 58.3273 133.235C58.107 133.015 57.9832 132.716 57.9832 132.404H173.803C173.803 132.56 173.772 132.715 173.711 132.859C173.651 133.003 173.563 133.133 173.451 133.242C173.34 133.352 173.208 133.438 173.063 133.496C172.918 133.554 172.763 133.582 172.607 133.579Z" fill="#E0E0E0"/>
<path id="Vector_19" d="M118.745 23.3896H48.9177V57.3914H118.745V23.3896Z" fill="#E0E0E0"/>
<path id="Vector_20" d="M122.099 23.3896H51.2515V57.3914H122.099V23.3896Z" fill="#F5F5F5"/>
<path id="Vector_21" d="M119.418 54.7151V26.0703L53.9318 26.0703V54.7151H119.418Z" fill="white"/>
<path id="Vector_22" d="M112.963 42.9488V37.8286C112.963 35.1675 110.806 33.0103 108.145 33.0103H65.2043C62.5432 33.0103 60.386 35.1675 60.386 37.8286V42.9488C60.386 45.6099 62.5432 47.7672 65.2043 47.7672H108.145C110.806 47.7672 112.963 45.6099 112.963 42.9488Z" fill="#F5F5F5"/>
<path id="Vector_23" d="M152.09 44.0181H135.456V61.2515H152.09V44.0181Z" fill="#E0E0E0"/>
<path id="Vector_24" d="M153.787 44.0181H137.573V61.2515H153.787V44.0181Z" fill="#F5F5F5"/>
<path id="Vector_25" d="M152.428 59.8968V45.3765H138.932V59.8968H152.428Z" fill="white"/>
<path id="Vector_26" d="M145.68 48.9668L141.988 55.36H149.372L145.68 48.9668Z" fill="#F5F5F5"/>
<path id="Vector_27" d="M174.256 32.7207H157.622V49.9541H174.256V32.7207Z" fill="#E0E0E0"/>
<path id="Vector_28" d="M175.957 32.7207H159.744V49.9541H175.957V32.7207Z" fill="#F5F5F5"/>
<path id="Vector_29" d="M174.599 48.5994V34.0791H161.102V48.5994H174.599Z" fill="white"/>
<path id="Vector_30" d="M169.498 43.9281L171.102 41.1538C171.269 40.864 171.356 40.5355 171.356 40.2011C171.356 39.8668 171.267 39.5384 171.1 39.249C170.932 38.9596 170.692 38.7194 170.402 38.5524C170.112 38.3854 169.784 38.2977 169.449 38.2979H166.247C165.912 38.2977 165.584 38.3854 165.294 38.5524C165.005 38.7194 164.764 38.9596 164.596 39.249C164.429 39.5384 164.341 39.8668 164.34 40.2011C164.34 40.5355 164.428 40.864 164.594 41.1538L166.198 43.9281C166.365 44.2179 166.606 44.4585 166.895 44.6258C167.185 44.7931 167.514 44.8812 167.848 44.8812C168.183 44.8812 168.511 44.7931 168.801 44.6258C169.091 44.4585 169.331 44.2179 169.498 43.9281Z" fill="#F5F5F5"/>
<path id="Vector_31" d="M23.5083 103.221H14.3V131.768H23.5083V103.221Z" fill="#E6E6E6"/>
<path id="Vector_32" d="M61.4675 131.768H16.0667V133.575H61.4675V131.768Z" fill="#E6E6E6"/>
<path id="Vector_33" d="M23.5082 131.768H63.238V103.221H23.5082V131.768Z" fill="#FAFAFA"/>
<path id="Vector_34" d="M27.127 116.097H59.6191V106.733H27.127V116.097Z" fill="#F0F0F0"/>
<path id="Vector_35" d="M27.127 128.251H59.6191V118.888H27.127V128.251Z" fill="#F0F0F0"/>
<path id="Vector_36" d="M47.2778 112.058H39.4689C39.2987 112.057 39.1357 111.989 39.0157 111.868C38.8957 111.747 38.8284 111.584 38.8284 111.413C38.8294 111.244 38.8973 111.082 39.0172 110.962C39.1371 110.842 39.2994 110.774 39.4689 110.773H47.2778C47.4473 110.774 47.6097 110.842 47.7295 110.962C47.8494 111.082 47.9173 111.244 47.9183 111.413C47.9183 111.584 47.851 111.747 47.731 111.868C47.611 111.989 47.4481 112.057 47.2778 112.058Z" fill="#FAFAFA"/>
<path id="Vector_37" d="M47.2778 124.212H39.4689C39.299 124.212 39.1361 124.145 39.016 124.025C38.8959 123.904 38.8284 123.742 38.8284 123.572C38.8284 123.402 38.8959 123.239 39.016 123.119C39.1361 122.999 39.299 122.931 39.4689 122.931H47.2778C47.4477 122.931 47.6106 122.999 47.7307 123.119C47.8509 123.239 47.9183 123.402 47.9183 123.572C47.9183 123.742 47.8509 123.904 47.7307 124.025C47.6106 124.145 47.4477 124.212 47.2778 124.212Z" fill="#FAFAFA"/>
<path id="Vector_38" d="M35.8457 82.2788H30.5419C30.6929 87.4195 28.3469 90.3243 28.3469 96.3748C28.3469 101.817 29.677 102.837 33.1979 102.837C36.7188 102.837 38.0489 101.817 38.0489 96.3748C38.0407 90.3243 35.6907 87.4195 35.8457 82.2788Z" fill="#FAFAFA"/>
<path id="Vector_39" d="M31.2642 102.642H35.1156V102.968C35.1156 103.035 35.0889 103.099 35.0415 103.147C34.994 103.194 34.9297 103.221 34.8626 103.221H31.5171C31.45 103.221 31.3857 103.194 31.3382 103.147C31.2908 103.099 31.2642 103.035 31.2642 102.968V102.642Z" fill="#F3F7FF"/>
<path id="Vector_40" d="M27.3474 84.1514H26.9395V91.9562H27.3474V84.1514Z" fill="#E0E0E0"/>
<path id="Vector_41" d="M41.6187 86.6076H24.7566L27.6492 69.3252H38.7302L41.6187 86.6076Z" fill="#EBEBEB"/>
</g>
<g id="Shadow">
<path id="Vector_42" d="M101.997 152C145.685 152 181.102 149.932 181.102 147.382C181.102 144.831 145.685 142.763 101.997 142.763C58.3085 142.763 22.8921 144.831 22.8921 147.382C22.8921 149.932 58.3085 152 101.997 152Z" fill="#F5F5F5"/>
</g>
<g id="Plant">
<path id="Vector_43" d="M98.8757 135.297C98.4922 121.984 98.0026 57.9259 98.7696 51.2512L100.3 49.5825C100.3 49.5825 100.263 51.496 100.226 56.5918C100.067 79.3983 99.4755 131.894 99.606 135.284L98.8757 135.297Z" fill="#EB3B5A"/>
<path id="Vector_44" opacity="0.6" d="M98.8757 135.297C98.4922 121.984 98.0026 57.9259 98.7696 51.2512L100.3 49.5825C100.3 49.5825 100.263 51.496 100.226 56.5918C100.067 79.3983 99.4755 131.894 99.606 135.284L98.8757 135.297Z" fill="white"/>
<path id="Vector_45" d="M105.122 97.4277C108.884 93.6701 113.215 90.5307 117.957 88.1256C121.478 86.4039 112.245 97.648 108.631 101.838C105.016 106.028 100.569 110.659 99.1408 114.571C98.8552 106.599 100.667 101.863 105.122 97.4277Z" fill="#EB3B5A"/>
<path id="Vector_46" opacity="0.6" d="M105.122 97.4277C108.884 93.6701 113.215 90.5307 117.957 88.1256C121.478 86.4039 112.245 97.648 108.631 101.838C105.016 106.028 100.569 110.659 99.1408 114.571C98.8552 106.599 100.667 101.863 105.122 97.4277Z" fill="white"/>
<path id="Vector_47" d="M99.1042 63.3971C96.3544 51.2635 97.203 44.2869 100.3 36.8085C103.196 29.8156 105.457 26.6904 108.822 24.0425C109.691 23.3612 107.737 33.1366 104.743 40.4233C102.629 45.5639 101.581 52.2549 100.12 56.1063C99.1042 58.7501 99.1042 63.3971 99.1042 63.3971Z" fill="#EB3B5A"/>
<path id="Vector_48" opacity="0.6" d="M99.1042 63.3971C96.3544 51.2635 97.203 44.2869 100.3 36.8085C103.196 29.8156 105.457 26.6904 108.822 24.0425C109.691 23.3612 107.737 33.1366 104.743 40.4233C102.629 45.5639 101.581 52.2549 100.12 56.1063C99.1042 58.7501 99.1042 63.3971 99.1042 63.3971Z" fill="white"/>
<path id="Vector_49" d="M99.2508 89.9856C98.9489 82.7234 98.5858 75.706 104.106 66.4814C105.448 64.2334 117.325 45.2661 121.425 44.1237C123.436 43.5688 119.862 58.2442 114.371 67.0036C110.25 73.5682 108.349 75.3062 103.841 82.9682C102.066 85.9873 99.2508 89.9856 99.2508 89.9856Z" fill="#EB3B5A"/>
<path id="Vector_50" opacity="0.6" d="M99.2508 89.9856C98.9489 82.7234 98.5858 75.706 104.106 66.4814C105.448 64.2334 117.325 45.2661 121.425 44.1237C123.436 43.5688 119.862 58.2442 114.371 67.0036C110.25 73.5682 108.349 75.3062 103.841 82.9682C102.066 85.9873 99.2508 89.9856 99.2508 89.9856Z" fill="white"/>
<path id="Vector_51" d="M92.1602 59.9944C87.3133 55.3188 82.5602 52.2426 79.0393 50.6882C75.5183 49.1337 84.7878 60.7655 89.239 65.8164C93.6901 70.8672 97.77 75.249 99.5162 79.7451C99.0144 70.1125 97.0111 64.674 92.1602 59.9944Z" fill="#EB3B5A"/>
<path id="Vector_52" opacity="0.6" d="M92.1602 59.9944C87.3133 55.3188 82.5602 52.2426 79.0393 50.6882C75.5183 49.1337 84.7878 60.7655 89.239 65.8164C93.6901 70.8672 97.77 75.249 99.5162 79.7451C99.0144 70.1125 97.0111 64.674 92.1602 59.9944Z" fill="white"/>
<path id="Vector_53" d="M99.5202 103.759C98.7328 98.2881 96.9376 92.0418 94.1837 87.7171C91.4298 83.3924 87.1908 76.7993 83.6821 75.0164C82.8417 74.588 87.4805 87.9496 89.7285 91.646C91.5686 94.7013 93.8063 97.4986 96.3828 99.9649C96.9784 100.581 99.5202 103.759 99.5202 103.759Z" fill="#EB3B5A"/>
<path id="Vector_54" opacity="0.6" d="M99.5202 103.759C98.7328 98.2881 96.9376 92.0418 94.1837 87.7171C91.4298 83.3924 87.1908 76.7993 83.6821 75.0164C82.8417 74.588 87.4805 87.9496 89.7285 91.646C91.5686 94.7013 93.8063 97.4986 96.3828 99.9649C96.9784 100.581 99.5202 103.759 99.5202 103.759Z" fill="white"/>
<path id="Vector_55" d="M105.416 138.748H93.0782L92.1479 125.456H106.346L105.416 138.748Z" fill="#EB3B5A"/>
<path id="Vector_56" d="M107.264 127.696H91.2301L90.769 124.232H107.725L107.264 127.696Z" fill="#EB3B5A"/>
<g id="Group" opacity="0.4">
<path id="Vector_57" d="M105.416 138.748H93.0782L92.1479 125.456H106.346L105.416 138.748Z" fill="black"/>
<path id="Vector_58" d="M107.264 127.696H91.2301L90.769 124.232H107.725L107.264 127.696Z" fill="black"/>
</g>
</g>
<g id="Character">
<path id="Vector_59" d="M118.757 89.0721C114.963 89.7534 102.585 82.0506 98.3945 76.9793C101.402 74.3777 104.156 71.4967 106.62 68.3748C103.902 71.4878 99.5369 74.2499 96.9462 75.7186C95.7753 74.7068 95.0898 74.0867 95.0898 74.0867C95.0898 74.0867 105.698 70.5331 111.336 58.0364C115.632 48.5262 121.874 43.4223 128.471 48.31C141.299 51.4515 127.7 85.1595 118.757 89.0721Z" fill="#263238"/>
<path id="Vector_60" d="M122.58 68.5421C122.478 68.693 122.417 68.7828 122.335 68.8889L122.111 69.1908C121.956 69.3866 121.801 69.5702 121.642 69.7538C121.319 70.121 120.993 70.4719 120.65 70.8064C119.96 71.4703 119.223 72.0852 118.447 72.6464C117.668 73.1994 116.85 73.6957 115.999 74.1315C115.567 74.3396 115.138 74.5395 114.694 74.7231L114.029 74.9842L113.853 75.0536C113.747 75.0862 113.657 75.1188 113.539 75.1474C113.273 75.2154 112.997 75.2361 112.723 75.2086C112.386 75.1733 112.061 75.0587 111.777 74.874C111.536 74.7095 111.33 74.5003 111.169 74.258C110.96 73.934 110.812 73.5745 110.732 73.1972C110.62 72.6608 110.572 72.113 110.589 71.5653C110.619 70.6216 110.723 69.6817 110.899 68.7542C111.067 67.8526 111.262 66.9713 111.483 66.0982C111.703 65.2251 111.956 64.3684 112.254 63.5034L113.784 63.8747C113.674 64.7315 113.551 65.6005 113.47 66.4654C113.388 67.3303 113.286 68.1871 113.237 69.0398C113.18 69.8614 113.173 70.6857 113.217 71.5081C113.232 71.8465 113.287 72.182 113.38 72.5077C113.417 72.626 113.47 72.7035 113.453 72.6587C113.419 72.5984 113.37 72.5478 113.311 72.5118C113.214 72.4429 113.102 72.3994 112.984 72.3853C112.93 72.3769 112.875 72.3769 112.821 72.3853L112.952 72.3241L113.498 72.0589C113.865 71.8835 114.216 71.6795 114.571 71.4877C115.268 71.0741 115.942 70.6233 116.591 70.1373C117.23 69.6408 117.836 69.1039 118.406 68.5298C118.696 68.2524 118.969 67.9586 119.222 67.6608C119.349 67.5099 119.479 67.3589 119.598 67.2079L119.777 66.9836L119.924 66.7959L122.58 68.5421Z" fill="#E4897B"/>
<path id="Vector_61" d="M113.645 64.2504L114.963 61.8882L111.724 62.084C111.724 62.084 111.52 63.618 112.409 64.5564L113.645 64.2504Z" fill="#E4897B"/>
<path id="Vector_62" d="M123.416 64.621C120.218 64.7475 117.786 67.787 117.786 67.787L121.866 72.9277C121.866 72.9277 124.926 69.8433 125.203 68.1501C125.501 66.3835 125.342 64.5435 123.416 64.621Z" fill="#EB3B5A"/>
<path id="Vector_63" opacity="0.3" d="M123.416 64.621C120.218 64.7475 117.786 67.787 117.786 67.787L121.866 72.9277C121.866 72.9277 124.926 69.8433 125.203 68.1501C125.501 66.3835 125.342 64.5435 123.416 64.621Z" fill="black"/>
<path id="Vector_64" d="M114.359 60.4683L111.985 61.0598L111.724 62.0839L114.963 61.8881L114.359 60.4683Z" fill="#E4897B"/>
<path id="Vector_65" d="M114.135 57.6284L114.555 57.8487L114.363 60.823L113.425 60.8882L114.135 57.6284Z" fill="#E4897B"/>
<path id="Vector_66" d="M113.421 57.5142L113.009 57.6121L112.617 61.1779L113.543 60.9413L113.421 57.5142Z" fill="#E4897B"/>
<path id="Vector_67" d="M120.45 65.5884C120.45 65.5884 119.198 66.5308 127.517 83.0095L139.532 79.2029C137.782 74.3765 136.819 71.3573 135.982 60.5742C134.194 60.76 132.422 61.0749 130.679 61.5167C128.819 61.9591 126.993 62.5345 125.216 63.2384C122.939 64.2012 120.45 65.5884 120.45 65.5884Z" fill="#EB3B5A"/>
<path id="Vector_68" opacity="0.3" d="M120.45 65.5884C120.45 65.5884 119.198 66.5308 127.517 83.0095L139.532 79.2029C137.782 74.3765 136.819 71.3573 135.982 60.5742C134.194 60.76 132.422 61.0749 130.679 61.5167C128.819 61.9591 126.993 62.5345 125.216 63.2384C122.939 64.2012 120.45 65.5884 120.45 65.5884Z" fill="black"/>
<path id="Vector_69" d="M148.545 143.991L145.546 144.281L142.425 137.141L145.424 136.852L148.545 143.991Z" fill="#E4897B"/>
<path id="Vector_70" d="M142.425 137.145L144.032 140.825H147.162L145.428 136.852L142.425 137.145Z" fill="#CE6F64"/>
<path id="Vector_71" d="M175.602 129.255L173.893 131.849L167.34 128.72L169.054 126.129L175.602 129.255Z" fill="#E4897B"/>
<path id="Vector_72" d="M169.054 126.129L167.345 128.72L170.723 130.332L172.432 127.741L169.054 126.129Z" fill="#CE6F64"/>
<path id="Vector_73" d="M127.517 83.0092C127.517 83.0092 126.913 107.786 129.965 116.754C133.135 126.08 142.474 139.756 142.474 139.756L148.296 139.475C148.296 139.475 139.899 122.29 138.953 114.869C137.655 104.637 136.325 80.2227 136.325 80.2227L127.517 83.0092Z" fill="#EB3B5A"/>
<path id="Vector_74" opacity="0.6" d="M127.517 83.0092C127.517 83.0092 126.913 107.786 129.965 116.754C133.135 126.08 142.474 139.756 142.474 139.756L148.296 139.475C148.296 139.475 139.899 122.29 138.953 114.869C137.655 104.637 136.325 80.2227 136.325 80.2227L127.517 83.0092Z" fill="black"/>
<path id="Vector_75" opacity="0.3" d="M137.32 96.1794L133.037 86.3877C133.037 86.3877 133.53 97.6767 137.639 100.582C137.529 99.1128 137.422 97.6318 137.32 96.1794Z" fill="black"/>
<path id="Vector_76" d="M130.695 82.0055C130.695 82.0055 138.855 101.781 144.248 112.67C148.614 121.462 169.462 130.495 169.462 130.495L171.649 126.823C171.649 126.823 155.7 116.705 152.685 110.74C143.036 91.6503 145.093 83.3519 139.544 79.2026L130.695 82.0055Z" fill="#EB3B5A"/>
<path id="Vector_77" opacity="0.6" d="M130.695 82.0055C130.695 82.0055 138.855 101.781 144.248 112.67C148.614 121.462 169.462 130.495 169.462 130.495L171.649 126.823C171.649 126.823 155.7 116.705 152.685 110.74C143.036 91.6503 145.093 83.3519 139.544 79.2026L130.695 82.0055Z" fill="black"/>
<path id="Vector_78" d="M173.17 131.568L173.395 128.108C173.398 128.048 173.423 127.991 173.465 127.948C173.507 127.904 173.563 127.877 173.623 127.871L176.406 127.655C176.476 127.652 176.545 127.664 176.61 127.69C176.676 127.715 176.734 127.755 176.783 127.805C176.832 127.855 176.87 127.915 176.894 127.98C176.918 128.046 176.929 128.116 176.924 128.186C176.822 129.41 176.716 129.981 176.614 131.511C176.557 132.453 176.561 134.546 176.475 135.844C176.389 137.141 175.1 137.133 175.019 136.582C174.651 134.134 173.962 132.979 173.33 132.119C173.212 131.96 173.155 131.765 173.17 131.568Z" fill="#263238"/>
<path id="Vector_79" d="M145.146 143.354H148.818C148.885 143.355 148.949 143.378 149.002 143.418C149.055 143.459 149.093 143.515 149.112 143.579L149.928 146.492C149.949 146.561 149.953 146.634 149.94 146.704C149.927 146.775 149.897 146.842 149.853 146.899C149.809 146.956 149.752 147.002 149.687 147.032C149.622 147.063 149.551 147.078 149.479 147.075C148.19 147.055 147.561 146.982 145.942 146.982C144.946 146.982 142.368 147.084 140.993 147.084C139.618 147.084 139.361 145.721 139.924 145.598C142.421 145.048 143.861 144.285 144.628 143.558C144.769 143.428 144.954 143.355 145.146 143.354Z" fill="#263238"/>
<path id="Vector_80" d="M128.19 55.5396C128.402 57.4081 129.075 60.7332 130.674 61.5166C130.674 61.5166 130.76 63.4504 127.496 64.4867C123.906 65.6209 125.215 63.2628 125.215 63.2628C127.027 62.1734 126.517 60.7373 125.742 59.4807L128.19 55.5396Z" fill="#E4897B"/>
<path id="Vector_81" d="M122.115 64.707C123.004 64.25 124.134 63.6992 125.216 63.2464C126.992 62.5405 128.816 61.9624 130.675 61.5165C131.727 61.2391 132.788 61.031 133.681 60.8882C133.873 61.4798 134.497 65.7514 128.116 67.3303C122.527 68.7175 121.821 65.629 122.115 64.707Z" fill="#E4897B"/>
<path id="Vector_82" d="M124.983 63.3644C124.929 63.3641 124.877 63.3438 124.836 63.3073C124.799 63.2674 124.779 63.2149 124.779 63.1604C124.779 63.1072 124.799 63.0559 124.836 63.0176C124.876 62.9809 124.927 62.9604 124.981 62.9604C125.035 62.9604 125.087 62.9809 125.126 63.0176C125.164 63.0555 125.186 63.1067 125.187 63.1604C125.186 63.2153 125.164 63.2679 125.126 63.3073C125.088 63.3442 125.037 63.3647 124.983 63.3644Z" fill="#F0F0F0"/>
<path id="Vector_83" d="M126.395 65.8003C126.34 65.7941 126.29 65.7667 126.256 65.7239C126.222 65.6811 126.206 65.6264 126.211 65.5718C126.217 65.5183 126.244 65.4695 126.286 65.4358C126.329 65.4022 126.382 65.3866 126.436 65.3923C126.462 65.3948 126.489 65.4027 126.512 65.4154C126.536 65.4281 126.557 65.4453 126.574 65.4662C126.591 65.4871 126.604 65.5111 126.612 65.5369C126.62 65.5628 126.622 65.5899 126.619 65.6167C126.613 65.6668 126.589 65.7131 126.552 65.7469C126.514 65.7807 126.466 65.7996 126.415 65.8003H126.395ZM127.027 65.6045C127.021 65.5505 127.037 65.4964 127.07 65.4537C127.104 65.411 127.153 65.3831 127.207 65.376C127.26 65.3702 127.314 65.3859 127.356 65.4195C127.398 65.4531 127.425 65.502 127.431 65.5555C127.435 65.5824 127.434 65.6098 127.427 65.6361C127.42 65.6624 127.407 65.687 127.391 65.7084C127.374 65.7298 127.353 65.7475 127.329 65.7605C127.305 65.7735 127.279 65.7815 127.252 65.784C127.198 65.7886 127.145 65.7726 127.103 65.7392C127.062 65.7057 127.034 65.6575 127.027 65.6045ZM127.843 65.4821C127.829 65.4301 127.837 65.3749 127.863 65.3283C127.89 65.2817 127.934 65.2475 127.986 65.2332C128.012 65.2259 128.039 65.2239 128.066 65.2274C128.093 65.2308 128.119 65.2397 128.142 65.2534C128.165 65.2672 128.185 65.2855 128.201 65.3072C128.217 65.329 128.229 65.3538 128.235 65.3801C128.249 65.432 128.241 65.4873 128.215 65.5338C128.188 65.5804 128.144 65.6146 128.092 65.6289H128.039C127.994 65.6307 127.949 65.6173 127.912 65.5906C127.875 65.564 127.848 65.5258 127.835 65.4821H127.843ZM125.546 65.531C125.523 65.5179 125.502 65.5003 125.486 65.4791C125.47 65.4579 125.458 65.4337 125.451 65.4078C125.444 65.382 125.442 65.355 125.446 65.3285C125.45 65.302 125.459 65.2765 125.473 65.2536C125.501 65.207 125.546 65.1732 125.599 65.1595C125.651 65.1458 125.707 65.1532 125.754 65.1801C125.777 65.194 125.798 65.2123 125.814 65.2339C125.83 65.2556 125.841 65.2803 125.848 65.3064C125.854 65.3326 125.855 65.3598 125.851 65.3865C125.847 65.4131 125.838 65.4387 125.824 65.4617C125.806 65.492 125.78 65.5171 125.749 65.5343C125.718 65.5515 125.684 65.5602 125.648 65.5596C125.609 65.5614 125.571 65.5515 125.538 65.531H125.546ZM128.622 65.2454C128.612 65.2208 128.606 65.1943 128.605 65.1674C128.605 65.1405 128.61 65.1137 128.619 65.0887C128.629 65.0637 128.644 65.0409 128.663 65.0215C128.681 65.0022 128.704 64.9868 128.729 64.9762C128.753 64.9653 128.78 64.9595 128.807 64.959C128.833 64.9585 128.86 64.9633 128.885 64.9732C128.91 64.983 128.933 64.9977 128.952 65.0165C128.972 65.0352 128.987 65.0575 128.998 65.0822C129.019 65.1321 129.019 65.1881 128.999 65.2383C128.979 65.2886 128.941 65.3292 128.892 65.3515C128.865 65.3576 128.837 65.3576 128.81 65.3515C128.771 65.3547 128.731 65.3464 128.696 65.3276C128.662 65.3087 128.633 65.2802 128.614 65.2454H128.622ZM129.332 64.8701C129.317 64.8479 129.306 64.8229 129.3 64.7965C129.295 64.77 129.294 64.7428 129.299 64.7162C129.304 64.6896 129.314 64.6643 129.329 64.6417C129.344 64.6191 129.363 64.5996 129.385 64.5845C129.43 64.5546 129.484 64.5434 129.537 64.5533C129.59 64.5632 129.636 64.5935 129.667 64.6375C129.682 64.6591 129.694 64.6836 129.699 64.7095C129.705 64.7355 129.706 64.7624 129.702 64.7886C129.697 64.8148 129.687 64.8398 129.673 64.8622C129.659 64.8846 129.64 64.904 129.618 64.919C129.583 64.9428 129.542 64.9556 129.5 64.9558C129.467 64.9563 129.434 64.9487 129.405 64.9338C129.376 64.9189 129.351 64.897 129.332 64.8701ZM124.918 64.8701C124.906 64.8457 124.899 64.8193 124.898 64.7923C124.897 64.7654 124.901 64.7384 124.91 64.7129C124.919 64.6875 124.933 64.6641 124.951 64.6442C124.969 64.6242 124.991 64.6081 125.016 64.5967C125.04 64.585 125.066 64.5781 125.092 64.5764C125.119 64.5748 125.145 64.5785 125.17 64.5872C125.195 64.5959 125.218 64.6096 125.238 64.6273C125.258 64.6451 125.274 64.6666 125.285 64.6906C125.297 64.7147 125.304 64.7409 125.306 64.7677C125.307 64.7945 125.304 64.8213 125.295 64.8467C125.286 64.8721 125.273 64.8955 125.255 64.9157C125.237 64.9358 125.215 64.9522 125.191 64.9639C125.164 64.9764 125.135 64.9833 125.106 64.9843C125.067 64.9852 125.028 64.9749 124.995 64.9546C124.962 64.9344 124.935 64.905 124.918 64.8701ZM129.989 64.3968C129.97 64.3782 129.955 64.356 129.945 64.3315C129.935 64.3069 129.929 64.2806 129.929 64.254C129.929 64.2274 129.935 64.2011 129.945 64.1766C129.955 64.152 129.97 64.1298 129.989 64.1112C130.008 64.0917 130.03 64.0762 130.054 64.0655C130.079 64.0549 130.105 64.0494 130.132 64.0494C130.159 64.0494 130.185 64.0549 130.21 64.0655C130.234 64.0762 130.256 64.0917 130.275 64.1112C130.294 64.1302 130.309 64.1527 130.319 64.1776C130.33 64.2025 130.335 64.2291 130.335 64.2561C130.335 64.283 130.33 64.3096 130.319 64.3345C130.309 64.3594 130.294 64.3819 130.275 64.4009C130.256 64.4217 130.232 64.4382 130.206 64.4494C130.18 64.4607 130.152 64.4664 130.124 64.4662C130.097 64.4614 130.071 64.4515 130.048 64.4368C130.025 64.422 130.005 64.4029 129.989 64.3805V64.3968ZM124.71 63.9888C124.708 63.962 124.712 63.9352 124.721 63.9098C124.729 63.8844 124.743 63.861 124.761 63.8409C124.779 63.8208 124.8 63.8044 124.824 63.7927C124.849 63.781 124.875 63.7741 124.902 63.7726C124.956 63.7704 125.009 63.7896 125.05 63.8263C125.09 63.8629 125.115 63.9139 125.118 63.9684C125.119 63.9952 125.115 64.022 125.105 64.0471C125.096 64.0723 125.082 64.0954 125.064 64.1151C125.046 64.1348 125.024 64.1507 124.999 64.162C124.975 64.1732 124.949 64.1795 124.922 64.1806C124.895 64.1817 124.868 64.1775 124.843 64.1682C124.818 64.159 124.795 64.1448 124.775 64.1266C124.756 64.1085 124.74 64.0866 124.728 64.0622C124.717 64.0379 124.711 64.0115 124.71 63.9847V63.9888ZM130.516 63.7603C130.492 63.7465 130.472 63.7282 130.456 63.7066C130.44 63.6849 130.429 63.6602 130.422 63.6341C130.416 63.6079 130.414 63.5807 130.419 63.554C130.423 63.5274 130.432 63.5018 130.446 63.4788C130.475 63.4336 130.521 63.4015 130.574 63.3894C130.626 63.3772 130.681 63.3859 130.728 63.4136C130.774 63.4422 130.807 63.4877 130.819 63.5402C130.832 63.5928 130.824 63.6483 130.797 63.6951C130.778 63.7246 130.752 63.749 130.722 63.7661C130.691 63.7832 130.657 63.7924 130.622 63.793C130.584 63.7909 130.547 63.7782 130.516 63.7563V63.7603ZM130.924 63.0423C130.898 63.0332 130.875 63.0192 130.856 63.0011C130.836 62.983 130.82 62.9611 130.809 62.9367C130.798 62.9124 130.792 62.8861 130.791 62.8594C130.791 62.8326 130.795 62.8061 130.805 62.7812C130.814 62.756 130.828 62.733 130.846 62.7133C130.865 62.6937 130.886 62.6779 130.911 62.6669C130.935 62.6558 130.961 62.6498 130.988 62.6491C131.015 62.6484 131.041 62.6531 131.066 62.6629C131.092 62.6724 131.115 62.6868 131.134 62.7053C131.154 62.7238 131.17 62.7461 131.181 62.7707C131.192 62.7954 131.198 62.822 131.199 62.849C131.199 62.876 131.194 62.9029 131.185 62.9281C131.17 62.9671 131.144 63.0006 131.11 63.024C131.075 63.0474 131.034 63.0595 130.993 63.0586C130.963 63.0602 130.933 63.0531 130.907 63.0382L130.924 63.0423ZM131.181 62.2712C131.128 62.2585 131.082 62.2261 131.052 62.1805C131.023 62.135 131.012 62.0798 131.021 62.0264C131.027 62.0001 131.038 61.9752 131.054 61.9531C131.069 61.9311 131.089 61.9123 131.112 61.8979C131.134 61.8835 131.16 61.8737 131.186 61.8691C131.213 61.8646 131.24 61.8653 131.266 61.8714C131.292 61.8767 131.317 61.8872 131.339 61.9022C131.361 61.9173 131.38 61.9366 131.394 61.959C131.409 61.9815 131.419 62.0066 131.423 62.0328C131.428 62.0591 131.427 62.0861 131.421 62.1121C131.411 62.1578 131.386 62.1988 131.35 62.2284C131.313 62.258 131.268 62.2745 131.221 62.2753H131.181V62.2712Z" fill="#F0F0F0"/>
<path id="Vector_84" d="M131.327 61.447C131.3 61.4482 131.273 61.4437 131.248 61.4339C131.223 61.424 131.2 61.409 131.18 61.3899C131.161 61.3707 131.146 61.3477 131.136 61.3225C131.127 61.2972 131.122 61.2702 131.123 61.2431C131.123 61.1898 131.143 61.1386 131.18 61.1003C131.199 61.0817 131.221 61.0665 131.246 61.0554C131.283 61.0411 131.325 61.0378 131.364 61.0457C131.404 61.0536 131.441 61.0725 131.47 61.1003C131.508 61.1382 131.53 61.1893 131.531 61.2431C131.529 61.2978 131.508 61.3501 131.47 61.3899C131.451 61.4073 131.429 61.4211 131.405 61.4307C131.38 61.4416 131.354 61.4472 131.327 61.447Z" fill="#F0F0F0"/>
<path id="Vector_85" d="M127.191 57.1426L125.742 59.46C125.929 59.7506 126.089 60.0579 126.22 60.3779C126.934 60.0311 127.851 59.0071 127.68 58.1952C127.581 57.8179 127.415 57.4614 127.191 57.1426Z" fill="#CE6F64"/>
<path id="Vector_86" d="M127.341 51.4061C128.365 54.311 128.863 55.5187 128.047 57.579C126.823 60.6756 123.029 61.3039 121.156 58.7622C119.471 56.4774 118.076 52.1079 120.369 49.8068C120.872 49.2961 121.498 48.9227 122.186 48.7221C122.874 48.5214 123.603 48.5003 124.301 48.6606C125 48.8209 125.646 49.1573 126.179 49.6379C126.711 50.1184 127.111 50.7272 127.341 51.4061Z" fill="#E4897B"/>
<path id="Vector_87" d="M123.107 48.3135C122.466 49.3008 125.073 55.0126 128.896 53.8744C130.809 53.3032 130.165 52.0262 129.039 50.892C127.681 49.5464 125.917 48.6861 124.02 48.444L123.107 48.3135Z" fill="#263238"/>
<path id="Vector_88" d="M123.253 48.477C122.127 48.3669 118.386 49.0564 118.549 52.8588C118.549 52.8588 120.104 51.4635 124.436 51.2269L123.253 48.477Z" fill="#263238"/>
<path id="Vector_89" d="M128.863 53.7523C128.949 54.0351 128.978 54.3321 128.949 54.6261C128.919 54.9202 128.832 55.2056 128.692 55.4658C128.317 56.1594 127.562 55.9554 127.195 55.3067C126.864 54.7192 126.664 53.6503 127.268 53.1729C127.403 53.0724 127.561 53.007 127.727 52.9825C127.894 52.958 128.064 52.9753 128.222 53.0327C128.38 53.0901 128.521 53.186 128.633 53.3116C128.745 53.4372 128.824 53.5886 128.863 53.7523Z" fill="#E4897B"/>
<path id="Vector_90" d="M139.5 78.4397L140.381 79.3455C140.45 79.4148 140.381 79.5331 140.242 79.578L127.631 83.5681C127.521 83.6008 127.415 83.5681 127.386 83.511L126.938 82.4666C126.905 82.3972 126.983 82.3034 127.101 82.2667L139.275 78.4152C139.312 78.3995 139.351 78.3935 139.391 78.3978C139.43 78.4021 139.468 78.4166 139.5 78.4397Z" fill="#EB3B5A"/>
<path id="Vector_91" d="M123.38 53.9971C123.478 54.2296 123.433 54.4663 123.286 54.5315C123.139 54.5968 122.931 54.4581 122.833 54.2296C122.735 54.0012 122.78 53.7604 122.931 53.6952C123.082 53.6299 123.282 53.7645 123.38 53.9971Z" fill="#263238"/>
<path id="Vector_92" d="M120.765 55.1025C120.863 55.331 120.822 55.5717 120.671 55.637C120.52 55.7023 120.316 55.5636 120.218 55.3351C120.12 55.1066 120.165 54.8659 120.316 54.8006C120.467 54.7354 120.675 54.87 120.765 55.1025Z" fill="#263238"/>
<path id="Vector_93" d="M120.397 54.7847L119.773 54.8622C119.773 54.8622 120.242 55.1723 120.397 54.7847Z" fill="#263238"/>
<path id="Vector_94" d="M121.629 55.2051C121.646 55.819 121.581 56.4325 121.434 57.0288C121.586 57.063 121.745 57.0632 121.898 57.0294C122.051 56.9956 122.195 56.9285 122.319 56.833L121.629 55.2051Z" fill="#DE5753"/>
<path id="Vector_95" d="M123.486 57.4044C123.471 57.4044 123.458 57.4002 123.446 57.3922C123.434 57.3841 123.425 57.3727 123.42 57.3595C123.416 57.3507 123.414 57.3411 123.414 57.3314C123.413 57.3216 123.415 57.312 123.418 57.3028C123.422 57.2937 123.427 57.2854 123.434 57.2783C123.44 57.2712 123.448 57.2655 123.457 57.2616C123.747 57.1466 124.006 56.9647 124.212 56.7308C124.419 56.4968 124.567 56.2173 124.644 55.9152C124.646 55.9056 124.649 55.8964 124.654 55.8882C124.66 55.88 124.666 55.873 124.674 55.8676C124.683 55.8622 124.692 55.8586 124.701 55.857C124.711 55.8553 124.721 55.8557 124.73 55.8581C124.74 55.8596 124.749 55.863 124.757 55.8681C124.766 55.8732 124.773 55.88 124.779 55.888C124.784 55.896 124.788 55.905 124.791 55.9146C124.793 55.9242 124.793 55.9341 124.791 55.9438C124.709 56.2699 124.55 56.5717 124.328 56.8243C124.106 57.0769 123.827 57.2729 123.514 57.3962L123.486 57.4044Z" fill="#263238"/>
<path id="Vector_96" d="M123.751 52.8347C123.725 52.8356 123.699 52.8285 123.678 52.8143C123.521 52.7177 123.343 52.6598 123.159 52.6456C122.975 52.6314 122.791 52.6613 122.621 52.7327C122.603 52.7416 122.584 52.7469 122.565 52.7484C122.545 52.7499 122.526 52.7476 122.507 52.7415C122.489 52.7354 122.472 52.7258 122.457 52.7131C122.442 52.7004 122.43 52.6849 122.421 52.6674C122.412 52.65 122.407 52.6311 122.405 52.6116C122.404 52.5921 122.406 52.5725 122.412 52.554C122.418 52.5354 122.428 52.5182 122.441 52.5034C122.453 52.4886 122.469 52.4764 122.486 52.4675C122.7 52.3748 122.934 52.3349 123.167 52.3512C123.4 52.3676 123.625 52.4396 123.824 52.5614C123.858 52.581 123.882 52.613 123.892 52.6504C123.902 52.6879 123.897 52.7277 123.877 52.7613C123.866 52.7844 123.847 52.8037 123.825 52.8167C123.803 52.8297 123.777 52.836 123.751 52.8347Z" fill="#263238"/>
<path id="Vector_97" d="M119.023 54.4134H118.998C118.979 54.41 118.961 54.4028 118.945 54.3923C118.928 54.3819 118.914 54.3683 118.903 54.3523C118.892 54.3364 118.885 54.3185 118.881 54.2996C118.877 54.2806 118.876 54.2611 118.88 54.2421C118.919 54.01 119.013 53.7908 119.155 53.6032C119.298 53.4156 119.483 53.2652 119.696 53.165C119.714 53.1553 119.734 53.1495 119.754 53.1479C119.774 53.1463 119.795 53.149 119.814 53.1558C119.833 53.1625 119.851 53.1733 119.866 53.1873C119.881 53.2012 119.893 53.2182 119.901 53.237C119.909 53.2558 119.913 53.276 119.912 53.2965C119.912 53.3169 119.907 53.337 119.899 53.3556C119.89 53.3742 119.878 53.3908 119.863 53.4043C119.848 53.4178 119.83 53.428 119.81 53.4343C119.645 53.518 119.503 53.6398 119.394 53.7895C119.286 53.9391 119.214 54.1124 119.186 54.2951C119.178 54.3315 119.157 54.3637 119.127 54.3855C119.097 54.4073 119.06 54.4173 119.023 54.4134Z" fill="#263238"/>
<path id="Vector_98" d="M138.308 63.3521C138.602 63.6988 138.961 64.0905 139.295 64.4618C139.63 64.833 139.993 65.2002 140.352 65.5593C141.066 66.2855 141.8 66.9913 142.572 67.6482C143.343 68.305 144.122 68.9456 144.938 69.5167C145.138 69.6677 145.346 69.7942 145.558 69.9247C145.77 70.0553 145.966 70.1981 146.182 70.3327C146.398 70.4674 146.619 70.5979 146.81 70.6999L147.072 70.8345L147.357 70.9488C147.769 71.0981 148.194 71.2101 148.626 71.2833C149.092 71.3558 149.562 71.4008 150.034 71.418C151.027 71.4406 152.022 71.3888 153.008 71.2629C154.027 71.1425 155.039 70.9682 156.039 70.7407C157.047 70.5326 158.079 70.2593 159.042 69.9778L159.625 71.4384C158.633 71.8999 157.617 72.3085 156.582 72.6623C155.539 73.0155 154.478 73.3137 153.404 73.5558C152.3 73.8066 151.176 73.9608 150.046 74.0169C148.831 74.0846 147.613 73.9467 146.443 73.6089L145.982 73.4457L145.525 73.2417C145.24 73.107 145.011 72.9765 144.754 72.8337C144.497 72.6909 144.252 72.5644 144.012 72.4257C143.771 72.287 143.518 72.1442 143.285 71.9892C142.339 71.3928 141.43 70.7388 140.564 70.0308C139.703 69.3291 138.879 68.5865 138.092 67.8114C137.7 67.4197 137.317 67.0199 136.941 66.6119C136.562 66.2039 136.211 65.7959 135.832 65.3267L138.308 63.3521Z" fill="#E4897B"/>
<path id="Vector_99" d="M173.167 133.354C173.127 133.358 173.088 133.358 173.048 133.354C173.004 133.349 172.962 133.331 172.928 133.303C172.893 133.275 172.867 133.237 172.852 133.195C172.71 132.824 173.379 131.922 173.456 131.82C173.465 131.81 173.476 131.801 173.489 131.797C173.502 131.793 173.516 131.792 173.53 131.796C173.544 131.798 173.557 131.805 173.567 131.815C173.578 131.826 173.584 131.839 173.587 131.853C173.656 132.261 173.73 132.987 173.444 133.261C173.406 133.294 173.362 133.319 173.315 133.335C173.267 133.352 173.217 133.358 173.167 133.354ZM173.468 132.041C173.211 132.408 172.914 132.934 172.987 133.13C172.987 133.155 173.016 133.183 173.077 133.195C173.122 133.209 173.17 133.211 173.217 133.201C173.263 133.191 173.306 133.17 173.342 133.138C173.497 133.004 173.542 132.596 173.468 132.041Z" fill="#EB3B5A"/>
<path id="Vector_100" d="M172.428 132.596C172.398 132.6 172.368 132.6 172.338 132.596C172.282 132.58 172.233 132.545 172.199 132.498C172.165 132.451 172.148 132.393 172.151 132.335C172.146 132.279 172.154 132.222 172.175 132.169C172.195 132.116 172.228 132.068 172.269 132.029C172.587 131.715 173.493 131.768 173.517 131.768C173.53 131.77 173.542 131.774 173.553 131.782C173.563 131.789 173.572 131.798 173.579 131.809C173.585 131.82 173.589 131.833 173.589 131.846C173.589 131.859 173.585 131.871 173.579 131.882C173.292 132.25 172.884 132.503 172.428 132.596ZM173.342 131.903C173.003 131.874 172.663 131.953 172.371 132.127C172.345 132.152 172.326 132.182 172.313 132.215C172.3 132.248 172.295 132.283 172.297 132.319C172.297 132.413 172.342 132.437 172.375 132.445C172.587 132.502 173.113 132.184 173.366 131.903H173.342Z" fill="#EB3B5A"/>
<path id="Vector_101" d="M143.514 143.963C143.263 143.981 143.012 143.921 142.796 143.791C142.739 143.751 142.692 143.698 142.66 143.636C142.627 143.575 142.61 143.506 142.608 143.437C142.603 143.398 142.609 143.359 142.625 143.324C142.641 143.288 142.666 143.258 142.698 143.237C143.037 143.012 144.289 143.579 144.538 143.698C144.552 143.704 144.563 143.714 144.571 143.727C144.578 143.741 144.581 143.756 144.579 143.771C144.577 143.786 144.57 143.801 144.56 143.812C144.55 143.824 144.537 143.832 144.522 143.836C144.191 143.914 143.853 143.956 143.514 143.963ZM142.927 143.326C142.877 143.324 142.827 143.335 142.784 143.359C142.772 143.366 142.764 143.377 142.758 143.389C142.753 143.402 142.752 143.415 142.755 143.428C142.755 143.476 142.766 143.524 142.788 143.566C142.81 143.609 142.842 143.646 142.882 143.673C143.171 143.893 143.865 143.812 144.265 143.738C143.843 143.532 143.391 143.393 142.927 143.326Z" fill="#EB3B5A"/>
<path id="Vector_102" d="M144.505 143.836H144.477C144.069 143.665 143.224 142.996 143.253 142.645C143.253 142.571 143.314 142.473 143.506 142.453C144.236 142.359 144.546 143.677 144.562 143.75C144.565 143.761 144.565 143.773 144.562 143.784C144.56 143.794 144.555 143.805 144.548 143.813C144.54 143.822 144.531 143.829 144.521 143.834C144.511 143.838 144.5 143.84 144.489 143.84L144.505 143.836ZM143.587 142.592H143.538C143.461 142.592 143.42 142.62 143.416 142.657C143.387 142.861 143.967 143.391 144.391 143.624C144.293 143.306 144.02 142.592 143.587 142.592Z" fill="#EB3B5A"/>
<path id="Vector_103" d="M159.797 69.4028L158.915 67.2241L157.438 70.0148C157.438 70.0148 158.344 71.5529 159.629 71.4386L159.829 70.8715C159.996 70.3941 159.985 69.8723 159.797 69.4028Z" fill="#E4897B"/>
<path id="Vector_104" d="M123.001 53.6787L122.38 53.7562C122.38 53.7562 122.85 54.0663 123.001 53.6787Z" fill="#263238"/>
<path id="Vector_105" d="M148.708 139.646L141.76 140.013L140.756 138.087L148.295 137.838L148.708 139.646Z" fill="#EB3B5A"/>
<path id="Vector_106" opacity="0.7" d="M148.708 139.646L141.76 140.013L140.756 138.087L148.295 137.838L148.708 139.646Z" fill="white"/>
<path id="Vector_107" d="M172.15 126.341L169.348 130.94L167.871 130.634L170.498 125.236L172.15 126.341Z" fill="#EB3B5A"/>
<path id="Vector_108" opacity="0.7" d="M172.15 126.341L169.348 130.94L167.871 130.634L170.498 125.236L172.15 126.341Z" fill="white"/>
<path id="Vector_109" d="M138.308 80.3205L138.635 80.2185C138.7 80.1981 138.737 80.1491 138.72 80.1083L138.112 78.7415C138.112 78.7008 138.027 78.6885 137.961 78.7089L137.635 78.8109C137.57 78.8109 137.533 78.8803 137.549 78.9211L138.145 80.2715C138.161 80.3245 138.231 80.3409 138.308 80.3205Z" fill="#EB3B5A"/>
<path id="Vector_110" d="M128.582 83.393L128.908 83.291C128.974 83.291 129.014 83.2217 128.998 83.1809L128.402 81.8304C128.382 81.7896 128.317 81.7774 128.251 81.7978L127.925 81.8998C127.86 81.8998 127.823 81.9691 127.839 82.0099L128.435 83.3604C128.451 83.3971 128.517 83.4134 128.582 83.393Z" fill="#EB3B5A"/>
<path id="Vector_111" d="M133.441 81.8586L133.767 81.7525C133.828 81.7525 133.869 81.6831 133.853 81.6423L133.257 80.296C133.257 80.2552 133.172 80.2389 133.106 80.2593L132.78 80.3613C132.715 80.3817 132.678 80.4347 132.694 80.4714L133.29 81.8219C133.306 81.8627 133.376 81.879 133.441 81.8586Z" fill="#EB3B5A"/>
<path id="Vector_112" opacity="0.6" d="M138.308 80.3205L138.635 80.2185C138.7 80.1981 138.737 80.1491 138.72 80.1083L138.112 78.7415C138.112 78.7008 138.027 78.6885 137.961 78.7089L137.635 78.8109C137.57 78.8109 137.533 78.8803 137.549 78.9211L138.145 80.2715C138.161 80.3245 138.231 80.3409 138.308 80.3205Z" fill="black"/>
<path id="Vector_113" opacity="0.6" d="M128.582 83.393L128.908 83.291C128.974 83.291 129.014 83.2217 128.998 83.1809L128.402 81.8304C128.382 81.7896 128.317 81.7774 128.251 81.7978L127.925 81.8998C127.86 81.8998 127.823 81.9691 127.839 82.0099L128.435 83.3604C128.451 83.3971 128.517 83.4134 128.582 83.393Z" fill="black"/>
<path id="Vector_114" opacity="0.6" d="M133.441 81.8586L133.767 81.7525C133.828 81.7525 133.869 81.6831 133.853 81.6423L133.257 80.296C133.257 80.2552 133.172 80.2389 133.106 80.2593L132.78 80.3613C132.715 80.3817 132.678 80.4347 132.694 80.4714L133.29 81.8219C133.306 81.8627 133.376 81.879 133.441 81.8586Z" fill="black"/>
<path id="Vector_115" d="M135.995 60.5742C137.312 60.5742 140.075 64.2461 140.075 64.2461L136.456 69.0685C136.456 69.0685 134.147 66.0576 134.159 64.3399C134.175 62.557 134.485 60.5905 135.995 60.5742Z" fill="#EB3B5A"/>
<path id="Vector_116" opacity="0.3" d="M135.995 60.5742C137.312 60.5742 140.075 64.2461 140.075 64.2461L136.456 69.0685C136.456 69.0685 134.147 66.0576 134.159 64.3399C134.175 62.557 134.485 60.5905 135.995 60.5742Z" fill="black"/>
<path id="Vector_117" d="M157.704 67.1099L157.671 69.3049C157.671 69.4057 157.702 69.504 157.761 69.5864L158.556 70.7002L158.915 67.2241L158.507 66.7957C158.442 66.732 158.36 66.6884 158.271 66.6702C158.181 66.652 158.089 66.6599 158.004 66.6931C157.919 66.7263 157.846 66.7833 157.792 66.8572C157.739 66.9311 157.708 67.0189 157.704 67.1099Z" fill="#E4897B"/>
</g>
<g id="blog-post">
<path id="Vector_118" d="M87.5825 35.8701V134.603H148.332V35.8701H87.5825ZM143.069 130.646H89.2757V39.8235H143.061L143.069 130.646Z" fill="#EB3B5A"/>
<path id="Vector_119" opacity="0.6" d="M87.5825 35.8701V134.603H148.332V35.8701H87.5825ZM143.069 130.646H89.2757V39.8235H143.061L143.069 130.646Z" fill="white"/>
<path id="Vector_120" d="M89.2761 39.8232H88.709V130.645H89.2761V39.8232Z" fill="white"/>
<path id="Vector_121" d="M89.2761 39.8232H88.709V130.645H89.2761V39.8232Z" fill="#F0F0F0"/>
<path id="Vector_122" d="M154.701 12.7573H45.0541C44.1086 12.7595 43.2023 13.1349 42.5322 13.8019C41.8621 14.4689 41.4825 15.3736 41.4761 16.3191V143.509C41.4793 144.457 41.8574 145.365 42.5279 146.034C43.1983 146.704 44.1065 147.081 45.0541 147.083H154.701C155.648 147.081 156.556 146.704 157.226 146.034C157.895 145.364 158.273 144.456 158.275 143.509V16.3191C158.269 15.374 157.891 14.4693 157.221 13.8022C156.552 13.135 155.646 12.7595 154.701 12.7573ZM89.2759 39.8232H143.061V130.645H89.2759V39.8232Z" fill="#EB3B5A"/>
<path id="Vector_123" opacity="0.5" d="M154.701 12.7573H45.0541C44.1086 12.7595 43.2023 13.1349 42.5322 13.8019C41.8621 14.4689 41.4825 15.3736 41.4761 16.3191V143.509C41.4793 144.457 41.8574 145.365 42.5279 146.034C43.1983 146.704 44.1065 147.081 45.0541 147.083H154.701C155.648 147.081 156.556 146.704 157.226 146.034C157.895 145.364 158.273 144.456 158.275 143.509V16.3191C158.269 15.374 157.891 14.4693 157.221 13.8022C156.552 13.135 155.646 12.7595 154.701 12.7573ZM89.2759 39.8232H143.061V130.645H89.2759V39.8232Z" fill="black"/>
<path id="Vector_124" d="M153.75 12.7573H44.1034C43.158 12.7595 42.2516 13.1349 41.5815 13.8019C40.9114 14.4689 40.5318 15.3736 40.5254 16.3191V143.509C40.5286 144.457 40.9068 145.365 41.5772 146.034C42.2476 146.704 43.1559 147.081 44.1034 147.083H153.75C154.697 147.08 155.604 146.702 156.274 146.033C156.943 145.363 157.321 144.456 157.324 143.509V16.3191C157.318 15.3743 156.939 14.4703 156.27 13.8033C155.6 13.1364 154.695 12.7605 153.75 12.7573ZM89.2881 39.8232H143.061V130.645H89.2759L89.2881 39.8232Z" fill="#EB3B5A"/>
<path id="Vector_125" opacity="0.2" d="M153.75 12.7573H44.1034C43.158 12.7595 42.2516 13.1349 41.5815 13.8019C40.9114 14.4689 40.5318 15.3736 40.5254 16.3191V143.509C40.5286 144.457 40.9068 145.365 41.5772 146.034C42.2476 146.704 43.1559 147.081 44.1034 147.083H153.75C154.697 147.08 155.604 146.702 156.274 146.033C156.943 145.363 157.321 144.456 157.324 143.509V16.3191C157.318 15.3743 156.939 14.4703 156.27 13.8033C155.6 13.1364 154.695 12.7605 153.75 12.7573ZM89.2881 39.8232H143.061V130.645H89.2759L89.2881 39.8232Z" fill="black"/>
<path id="Vector_126" d="M40.5254 22.0024V143.509C40.5286 144.457 40.9068 145.365 41.5772 146.034C42.2476 146.704 43.1559 147.081 44.1034 147.083H153.75C154.697 147.08 155.604 146.703 156.274 146.033C156.943 145.363 157.321 144.456 157.324 143.509V22.0024H40.5254ZM89.2759 39.8234H143.061V130.646H89.2759V39.8234Z" fill="#EB3B5A"/>
<path id="Vector_127" opacity="0.6" d="M40.5254 22.0024V143.509C40.5286 144.457 40.9068 145.365 41.5772 146.034C42.2476 146.704 43.1559 147.081 44.1034 147.083H153.75C154.697 147.08 155.604 146.703 156.274 146.033C156.943 145.363 157.321 144.456 157.324 143.509V22.0024H40.5254ZM89.2759 39.8234H143.061V130.646H89.2759V39.8234Z" fill="white"/>
<path id="Vector_128" d="M41.2068 26.7554V142.33H156.667V26.7554H41.2068ZM143.081 130.645H89.2759V39.8232H143.061L143.081 130.645Z" fill="white"/>
<path id="Vector_129" opacity="0.76" d="M149.478 19.3059C150.528 19.3059 151.38 18.4547 151.38 17.4046C151.38 16.3546 150.528 15.5034 149.478 15.5034C148.428 15.5034 147.577 16.3546 147.577 17.4046C147.577 18.4547 148.428 19.3059 149.478 19.3059Z" fill="#EB3B5A"/>
<path id="Vector_130" opacity="0.76" d="M142.743 19.3059C143.793 19.3059 144.644 18.4547 144.644 17.4046C144.644 16.3546 143.793 15.5034 142.743 15.5034C141.693 15.5034 140.841 16.3546 140.841 17.4046C140.841 18.4547 141.693 19.3059 142.743 19.3059Z" fill="#EB3B5A"/>
<path id="Vector_131" opacity="0.76" d="M134.105 17.4046C134.105 17.7807 134.217 18.1482 134.426 18.4609C134.635 18.7736 134.932 19.0172 135.279 19.1611C135.627 19.305 136.009 19.3427 136.378 19.2693C136.746 19.196 137.085 19.0149 137.351 18.749C137.617 18.4831 137.798 18.1444 137.871 17.7756C137.945 17.4068 137.907 17.0245 137.763 16.6771C137.619 16.3297 137.376 16.0327 137.063 15.8238C136.75 15.6149 136.383 15.5034 136.007 15.5034C135.502 15.5034 135.019 15.7037 134.662 16.0603C134.306 16.4168 134.105 16.9004 134.105 17.4046Z" fill="#EB3B5A"/>
<path id="Vector_132" d="M40.5295 22.2393L157.324 22.2393V21.7619L40.5295 21.7619V22.2393Z" fill="#EB3B5A"/>
<path id="Vector_133" d="M159.703 35.8698H159.295V33.0139H159.703V35.8698ZM159.703 30.5292H159.295V21.2148H159.703V30.5292Z" fill="#EB3B5A"/>
<path id="Vector_134" opacity="0.4" d="M159.703 35.8698H159.295V33.0139H159.703V35.8698ZM159.703 30.5292H159.295V21.2148H159.703V30.5292Z" fill="black"/>
<path id="Vector_135" d="M60.3943 65.188H71.8955V59.4721H60.3943V65.188Z" fill="#EB3B5A"/>
<path id="Vector_136" opacity="0.6" d="M60.3943 65.188H71.8955V59.4721H60.3943V65.188Z" fill="white"/>
<path id="Vector_137" d="M52.1774 102.923H73.458V97.207H52.1774V102.923Z" fill="#EB3B5A"/>
<path id="Vector_138" opacity="0.6" d="M52.1774 102.923H73.458V97.207H52.1774V102.923Z" fill="white"/>
<path id="Vector_139" d="M33.047 36.8857L77.0566 36.8857V31.1698L33.047 31.1698V36.8857Z" fill="#EB3B5A"/>
<path id="Vector_140" opacity="0.6" d="M33.047 36.8857L77.0566 36.8857V31.1698L33.047 31.1698V36.8857Z" fill="white"/>
<path id="Vector_141" d="M33.0472 46.3188L68.6074 46.3188V40.6029L33.0472 40.6029V46.3188Z" fill="#EB3B5A"/>
<path id="Vector_142" opacity="0.6" d="M33.0472 46.3188L68.6074 46.3188V40.6029L33.0472 40.6029V46.3188Z" fill="white"/>
<path id="Vector_143" d="M33.0468 55.7515L73.458 55.7515V50.0356L33.0468 50.0356V55.7515Z" fill="#EB3B5A"/>
<path id="Vector_144" opacity="0.6" d="M33.0468 55.7515L73.458 55.7515V50.0356L33.0468 50.0356V55.7515Z" fill="white"/>
<path id="Vector_145" d="M33.0471 65.188H55.6169V59.4721H33.0471V65.188Z" fill="#EB3B5A"/>
<path id="Vector_146" opacity="0.6" d="M33.0471 65.188H55.6169V59.4721H33.0471V65.188Z" fill="white"/>
<path id="Vector_147" d="M33.0468 74.6206H73.458V68.9047H33.0468V74.6206Z" fill="#EB3B5A"/>
<path id="Vector_148" opacity="0.6" d="M33.0468 74.6206H73.458V68.9047H33.0468V74.6206Z" fill="white"/>
<path id="Vector_149" d="M33.047 84.0537H77.0566V78.3378H33.047V84.0537Z" fill="#EB3B5A"/>
<path id="Vector_150" opacity="0.6" d="M33.047 84.0537H77.0566V78.3378H33.047V84.0537Z" fill="white"/>
<path id="Vector_151" d="M33.0472 93.4902H64.0706V87.7743H33.0472V93.4902Z" fill="#EB3B5A"/>
<path id="Vector_152" opacity="0.6" d="M33.0472 93.4902H64.0706V87.7743H33.0472V93.4902Z" fill="white"/>
<path id="Vector_153" d="M33.047 102.923H47.4041V97.207H33.047V102.923Z" fill="#EB3B5A"/>
<path id="Vector_154" opacity="0.6" d="M33.047 102.923H47.4041V97.207H33.047V102.923Z" fill="white"/>
<path id="Vector_155" d="M51.0542 122.354C51.9449 117.043 48.3614 112.015 43.0503 111.125C37.7392 110.234 32.7117 113.817 31.821 119.128C30.9303 124.44 34.5138 129.467 39.8249 130.358C45.136 131.249 50.1635 127.665 51.0542 122.354Z" fill="#EB3B5A"/>
<path id="Vector_156" opacity="0.6" d="M51.0542 122.354C51.9449 117.043 48.3614 112.015 43.0503 111.125C37.7392 110.234 32.7117 113.817 31.821 119.128C30.9303 124.44 34.5138 129.467 39.8249 130.358C45.136 131.249 50.1635 127.665 51.0542 122.354Z" fill="white"/>
<path id="Vector_157" d="M42.4307 119.047C40.1133 118.337 38.6772 115.815 38.6772 115.815C38.6772 115.815 37.9469 115.775 37.9102 116.436C37.896 116.882 37.9742 117.326 38.1399 117.74C38.3056 118.154 38.5552 118.53 38.873 118.843L37.7592 118.782C37.3619 118.76 36.9638 118.803 36.5801 118.908L36.2089 119.006C35.9028 119.091 35.6419 119.292 35.4812 119.566C35.3206 119.84 35.2728 120.166 35.348 120.475L35.9029 122.641C36.0589 123.295 36.4539 123.867 37.0104 124.245C37.5668 124.622 38.2443 124.778 38.9097 124.681C40.0439 124.514 41.8105 124.273 42.1165 124.2L42.9325 124.134L43.2059 119.275L42.4307 119.047Z" fill="white"/>
<path id="Vector_158" d="M46.0617 118.374H42.9406C42.6973 118.374 42.5 118.571 42.5 118.814V124.33C42.5 124.574 42.6973 124.771 42.9406 124.771H46.0617C46.3051 124.771 46.5024 124.574 46.5024 124.33V118.814C46.5024 118.571 46.3051 118.374 46.0617 118.374Z" fill="#EB3B5A"/>
<path id="Vector_159" d="M73.0557 127.637C76.8636 123.829 76.8636 117.655 73.0557 113.847C69.2477 110.039 63.0738 110.039 59.2658 113.847C55.4578 117.655 55.4578 123.829 59.2658 127.637C63.0738 131.445 69.2477 131.445 73.0557 127.637Z" fill="#EB3B5A"/>
<path id="Vector_160" opacity="0.6" d="M73.0557 127.637C76.8636 123.829 76.8636 117.655 73.0557 113.847C69.2477 110.039 63.0738 110.039 59.2658 113.847C55.4578 117.655 55.4578 123.829 59.2658 127.637C63.0738 131.445 69.2477 131.445 73.0557 127.637Z" fill="white"/>
<path id="Vector_161" d="M71.0186 117.256C70.6996 116.937 70.3208 116.683 69.9039 116.511C69.4871 116.338 69.0402 116.249 68.589 116.249C68.1378 116.249 67.691 116.338 67.2741 116.511C66.8572 116.683 66.4785 116.937 66.1594 117.256C65.5151 116.611 64.6411 116.249 63.7299 116.249C62.8186 116.249 61.9447 116.611 61.3003 117.256C60.6559 117.9 60.2939 118.774 60.2939 119.685C60.2939 120.596 60.6559 121.47 61.3003 122.115L66.1594 126.974L71.0186 122.115C71.6611 121.469 72.0218 120.596 72.0218 119.685C72.0218 118.775 71.6611 117.901 71.0186 117.256Z" fill="#EB3B5A"/>
<path id="Vector_162" d="M84.7593 35.8701V134.603H147.01V35.8701H84.7593ZM143.061 130.646H89.2757V39.8235H143.061V130.646Z" fill="#EB3B5A"/>
<path id="Vector_163" opacity="0.8" d="M84.7593 35.8701V134.603H147.01V35.8701H84.7593ZM143.061 130.646H89.2757V39.8235H143.061V130.646Z" fill="white"/>
</g>
</g>
</svg>
