<svg xmlns="http://www.w3.org/2000/svg" width="8" height="8" viewBox="0 0 8 8" fill="none">
  <path fill-rule="evenodd" clip-rule="evenodd" d="M4.25557 1.3276C4.33656 1.36115 4.41014 1.41034 4.47212 1.47235L6.52812 3.52801C6.59017 3.58999 6.6394 3.66359 6.67299 3.74461C6.70658 3.82563 6.72386 3.91247 6.72386 4.00018C6.72386 4.08788 6.70658 4.17473 6.67299 4.25575C6.6394 4.33676 6.59017 4.41037 6.52812 4.47235L4.47212 6.52801C4.41014 6.59002 4.33656 6.6392 4.25557 6.67276C4.17459 6.70632 4.08778 6.72359 4.00012 6.72359C3.91245 6.72359 3.82564 6.70632 3.74466 6.67276C3.66367 6.6392 3.59009 6.59002 3.52812 6.52801L1.47212 4.47235C1.41006 4.41037 1.36083 4.33676 1.32724 4.25575C1.29366 4.17473 1.27637 4.08788 1.27637 4.00018C1.27637 3.91247 1.29366 3.82563 1.32724 3.74461C1.36083 3.66359 1.41006 3.58999 1.47212 3.52801L3.52812 1.47235C3.59009 1.41034 3.66367 1.36115 3.74466 1.3276C3.82564 1.29404 3.91245 1.27676 4.00012 1.27676C4.08778 1.27676 4.17459 1.29404 4.25557 1.3276ZM3.76441 4.56905C3.82692 4.63156 3.91171 4.66668 4.00011 4.66668C4.08852 4.66668 4.1733 4.63156 4.23582 4.56905C4.29833 4.50653 4.33345 4.42175 4.33345 4.33334V2.66668C4.33345 2.57827 4.29833 2.49349 4.23582 2.43097C4.1733 2.36846 4.08852 2.33334 4.00011 2.33334C3.91171 2.33334 3.82692 2.36846 3.76441 2.43097C3.7019 2.49349 3.66678 2.57827 3.66678 2.66668V4.33334C3.66678 4.42175 3.7019 4.50653 3.76441 4.56905ZM3.76441 5.56905C3.82692 5.63156 3.91171 5.66668 4.00011 5.66668C4.08852 5.66668 4.1733 5.63156 4.23582 5.56905C4.29833 5.50653 4.33345 5.42175 4.33345 5.33334C4.33345 5.24494 4.29833 5.16015 4.23582 5.09764C4.1733 5.03513 4.08852 5.00001 4.00011 5.00001C3.91171 5.00001 3.82692 5.03513 3.76441 5.09764C3.7019 5.16015 3.66678 5.24494 3.66678 5.33334C3.66678 5.42175 3.7019 5.50653 3.76441 5.56905Z" fill="#C81434"/>
</svg>