<svg width="160" height="39" viewBox="0 0 160 39" fill="none" xmlns="http://www.w3.org/2000/svg">
<g id="clouds" opacity="0.516">
<path id="Path 879" d="M72.4713 7.52051H64.972V15.0198H72.4713C73.4657 15.0198 74.4195 14.6247 75.1227 13.9216C75.8258 13.2184 76.2209 12.2646 76.2209 11.2702C76.2209 10.2757 75.8258 9.32195 75.1227 8.61875C74.4195 7.91556 73.4657 7.52051 72.4713 7.52051Z" fill="#7CF0EE"/>
<path id="Path 880" d="M90.4296 7.5197H82.9303C82.9303 5.53098 82.1403 3.62372 80.7341 2.21749C79.3279 0.811254 77.4206 0.0212402 75.4319 0.0212402L3.69361 0.0212402C2.70896 0.0359575 1.76962 0.437439 1.07851 1.13895C0.387398 1.84047 0 2.78571 0 3.77047C0 4.75523 0.387398 5.70047 1.07851 6.40198C1.76962 7.1035 2.70896 7.50498 3.69361 7.5197H11.1921C11.1921 9.50841 11.9821 11.4157 13.3883 12.8219C14.7945 14.2281 16.7018 15.0182 18.6905 15.0182H90.4288C91.4135 15.0034 92.3528 14.602 93.0439 13.9004C93.735 13.1989 94.1224 12.2537 94.1224 11.2689C94.1224 10.2842 93.735 9.33893 93.0439 8.63741C92.3528 7.93589 91.4135 7.53441 90.4288 7.5197H90.4296Z" fill="#BDF7F7"/>
<path id="Path 881" d="M157.532 24.311H152.597V29.2466H157.532C158.187 29.2466 158.814 28.9866 159.277 28.5238C159.74 28.061 160 27.4333 160 26.7788C160 26.1243 159.74 25.4966 159.277 25.0338C158.814 24.571 158.187 24.311 157.532 24.311Z" fill="#7CF0EE"/>
<path id="Path 882" d="M157.484 30.5454C157.484 29.0897 157.014 27.9088 156.432 27.9088C156.432 24.9967 155.49 22.6323 154.329 22.6323H139.639C138.477 22.6323 137.535 24.9933 137.535 27.9088H129.997C128.836 27.9088 127.893 30.269 127.893 33.1853H125.789C125.207 33.1819 124.737 34.362 124.737 35.8185C124.737 37.275 125.207 38.455 125.789 38.455H144.688C145.85 38.455 146.792 36.094 146.792 33.1786H156.435C157.016 33.1819 157.484 32.0018 157.484 30.5454Z" fill="#BDF7F7"/>
</g>
</svg>
