<svg width="124" height="71" viewBox="0 0 124 71" fill="none" xmlns="http://www.w3.org/2000/svg">
<g id="truck (1)">
<g id="Group 4188">
<path id="Path 872" d="M113.346 61.9136H123.877V42.6068L108.081 18.0352H88.7738V61.9136H95.7949" fill="#EB3B5A"/>
<path id="Path 873" d="M29.3357 61.914H13.4878V8.073H88.7739V61.914H49.1501" fill="#EBEDF3"/>
</g>
<g id="Group 4189">
<path id="Rectangle 793" d="M25.9018 51.1199H12.9476V55.4382H25.9018V51.1199Z" fill="#ABB1BB"/>
<path id="Rectangle 794" d="M88.5143 51.1199H49.6518V55.4382H88.5143V51.1199Z" fill="#ABB1BB"/>
</g>
<path id="Rectangle 795" d="M123.877 51.1182H115.242V55.4365H123.877V51.1182Z" fill="#DBDBDB"/>
<path id="Rectangle 796" d="M88.5143 16.3674H12.9476V20.6858H88.5143V16.3674Z" fill="#ABB1BB"/>
<g id="Group 4190">
<path id="Ellipse 222" d="M39.0788 70.3808C43.7044 70.3808 47.4542 66.6311 47.4542 62.0055C47.4542 57.3799 43.7044 53.6301 39.0788 53.6301C34.4532 53.6301 30.7035 57.3799 30.7035 62.0055C30.7035 66.6311 34.4532 70.3808 39.0788 70.3808Z" fill="#2E3C40"/>
<path id="Ellipse 223" d="M103.273 70.3808C107.899 70.3808 111.649 66.6311 111.649 62.0055C111.649 57.3799 107.899 53.6301 103.273 53.6301C98.6477 53.6301 94.8979 57.3799 94.8979 62.0055C94.8979 66.6311 98.6477 70.3808 103.273 70.3808Z" fill="#2E3C40"/>
</g>
<g id="Group 4191">
<path id="Rectangle 797" d="M41.1449 59.7522H36.8265V64.0705H41.1449V59.7522Z" fill="#DBDBDB"/>
<path id="Rectangle 798" d="M105.339 59.7522H101.021V64.0705H105.339V59.7522Z" fill="#DBDBDB"/>
<path id="Rectangle 799" d="M38.9857 0.455078H8.759V4.77341H38.9857V0.455078Z" fill="#DBDBDB"/>
<path id="Rectangle 800" d="M4.44077 0.455078H0.122437V4.77341H4.44077V0.455078Z" fill="#DBDBDB"/>
</g>
<path id="Path 874" d="M110.868 22.3604H92.2842V39.838H122.112L110.868 22.3604Z" fill="#71EBDF"/>
<path id="Rectangle 801" d="M92.3058 17.7639H88.7739V61.9163H92.3058V17.7639Z" fill="#D13450"/>
<path id="Path 875" d="M122.112 39.8403L111.568 23.4304C106.385 29.5801 99.76 34.3504 92.2842 37.3151V39.8394H122.112V39.8403Z" fill="#10CFBD"/>
</g>
</svg>
